<svg xmlns="http://www.w3.org/2000/svg" xmlns:v="https://svgstorm.com"
viewBox = "0 0 512 512"
width="512"
height="512">
<g fill="None" fill-opacity="0.0" stroke="#000000" stroke-opacity="0.02" stroke-width="0.3"><path d="
M 0.00 512.00 
L 512.00 512.00
L 512.00 0.00
L 0.00 0.00
L 0.00 512.00
M 39.00 6.00 
C 55.70 4.50 76.88 8.14 95.00 7.00 C 113.12 5.86 137.46 7.20 155.00 7.00 C 172.54 6.80 191.58 4.86 201.92 10.13 C 212.25 15.40 219.97 22.87 222.35 33.70 C 224.73 44.53 224.60 66.23 224.00 83.00 C 223.40 99.77 225.38 125.95 224.00 143.00 C 222.62 160.05 227.36 182.83 223.65 196.70 C 219.94 210.57 208.62 221.44 192.98 223.98 C 177.33 226.51 152.58 224.82 135.00 225.00 C 117.42 225.18 92.67 225.52 75.00 225.00 C 57.33 224.48 36.23 228.94 22.30 217.70 C 8.38 206.45 6.01 198.73 6.00 182.00 C 5.99 165.27 5.92 140.66 6.00 123.00 C 6.08 105.34 5.79 80.13 6.00 63.00 C 6.21 45.87 4.55 33.38 11.39 24.25 C 18.23 15.11 28.42 6.95 39.00 6.00
M 321.00 6.00 
C 341.48 4.82 366.94 8.53 388.00 7.00 C 409.06 5.47 437.10 8.47 457.00 7.00 C 476.90 5.53 487.57 9.01 498.25 20.75 C 508.92 32.50 505.26 43.92 506.00 64.00 C 506.74 84.08 505.91 113.41 506.00 133.00 C 506.09 152.59 507.31 181.04 504.24 196.25 C 501.18 211.45 492.03 220.20 473.00 224.00 C 453.96 227.80 426.34 223.52 406.00 225.00 C 385.66 226.48 356.68 223.40 337.00 225.00 C 317.32 226.60 299.63 219.10 291.91 205.08 C 284.20 191.07 288.69 169.74 288.00 150.00 C 287.31 130.26 287.82 100.31 288.00 81.00 C 288.18 61.69 285.15 38.12 291.39 27.25 C 297.64 16.37 309.93 6.64 321.00 6.00
M 15.00 413.00 
C 13.99 405.37 16.34 396.51 15.00 389.00 C 13.66 381.49 17.57 372.06 15.00 365.00
C 13.07 359.71 8.55 360.11 10.00 352.00 C 11.45 343.89 9.91 342.23 10.00 333.00 C 10.09 323.77 9.74 312.62 13.13 307.08 C 16.53 301.55 12.29 304.76 18.09 299.08 C 23.89 293.40 29.36 287.08 35.08 286.94 C 40.81 286.80 39.12 283.57 45.08 284.07 C 51.04 284.56 56.85 283.75 63.00 284.00 C 69.15 284.25 75.71 283.88 82.00 284.00 C 88.29 284.12 93.45 283.94 100.00 284.00 C 106.55 284.06 112.00 283.96 119.00 284.00 C 126.00 284.04 130.12 283.94 138.00 284.00 C 145.88 284.06 145.85 283.89 156.00 284.00 C 166.15 284.11 184.02 283.69 193.67 284.33 C 203.32 284.97 204.45 286.88 210.92 290.13 C 217.39 293.38 221.34 300.37 224.39 305.75 C 227.44 311.13 229.55 320.42 228.00 329.00 C 226.45 337.58 228.71 340.62 228.00 348.00 C 227.29 355.38 228.35 360.12 228.00 367.00 C 227.65 373.88 228.18 378.19 228.00 385.00 C 227.82 391.81 228.14 396.87 228.00 404.00 C 227.86 411.13 228.20 413.80 228.00 422.00 C 227.80 430.20 228.37 430.64 228.00 441.00 C 227.63 451.36 229.35 466.41 226.07 476.07 C 222.79 485.74 217.30 491.27 208.92 496.92 C 200.53 502.57 187.04 502.49 177.00 502.00 C 166.96 501.51 166.86 502.21 159.00 502.00 C 151.14 501.79 147.04 502.09 140.00 502.00 C 132.96 501.91 127.69 502.04 121.00 502.00 C 114.31 501.96 109.65 502.01 103.00 502.00 C 96.35 501.99 90.91 502.00 84.00 502.00 C 77.09 502.00 72.56 501.98 65.00 502.00 C 57.44 502.02 56.32 501.95 47.00 502.00 C 37.68 502.05 28.00 497.50 21.25 490.75 C 14.50 484.00 10.42 473.23 10.00 464.00 C 9.58 454.76 10.18 453.06 10.00 446.00 C 9.82 438.94 10.08 432.75 10.00 427.00 C 9.92 421.25 8.83 413.61 15.00 413.00
M 324.00 286.00 
C 341.79 285.12 363.54 287.92 382.00 287.00 C 400.46 286.08 423.26 287.14 441.00 287.00 C 458.74 286.86 474.26 284.59 484.30 291.71 C 494.34 298.83 502.48 303.82 504.31 316.70 C 506.14 329.57 504.87 353.56 505.00 370.00 C 505.13 386.44 505.41 412.71 505.00 429.00 C 504.59 445.29 506.91 467.52 503.65 478.70 C 500.39 489.87 492.68 498.00 481.90 502.91 C 471.12 507.81 451.58 504.47 435.00 505.00 C 418.42 505.53 391.62 505.20 375.00 505.00 C 358.38 504.80 332.98 505.87 319.25 505.60 C 305.52 505.34 303.00 497.55 293.61 488.25 C 284.22 478.94 287.35 470.39 287.00 453.00 C 286.65 435.61 287.35 411.70 287.00 394.00 C 286.65 376.30 287.58 350.59 287.00 334.00 C 286.42 317.41 286.97 310.25 295.13 301.08 C 303.29 291.91 311.72 286.60 324.00 286.00 Z"/>
</g>
<g fill="None" fill-opacity="0.0" stroke="#000000" stroke-opacity="1.00" stroke-width="0.3"><path d="
M 39.00 6.00 
C 28.42 6.95 18.23 15.11 11.39 24.25 C 4.55 33.38 6.21 45.87 6.00 63.00 C 5.79 80.13 6.08 105.34 6.00 123.00 C 5.92 140.66 5.99 165.27 6.00 182.00 C 6.01 198.73 8.38 206.45 22.30 217.70 C 36.23 228.94 57.33 224.48 75.00 225.00 C 92.67 225.52 117.42 225.18 135.00 225.00 C 152.58 224.82 177.33 226.51 192.98 223.98 C 208.62 221.44 219.94 210.57 223.65 196.70 C 227.36 182.83 222.62 160.05 224.00 143.00 C 225.38 125.95 223.40 99.77 224.00 83.00 C 224.60 66.23 224.73 44.53 222.35 33.70 C 219.97 22.87 212.25 15.40 201.92 10.13 C 191.58 4.86 172.54 6.80 155.00 7.00 C 137.46 7.20 113.12 5.86 95.00 7.00 C 76.88 8.14 55.70 4.50 39.00 6.00
M 192.00 18.00 
C 212.44 21.66 214.56 43.09 213.00 62.00 C 211.44 80.91 214.84 106.80 213.00 127.00 C 211.16 147.20 216.46 172.39 212.67 192.67 C 208.88 212.95 187.77 215.35 169.00 214.00 C 150.23 212.65 124.20 215.41 104.00 214.00 C 83.80 212.59 59.23 216.83 38.99 213.01 C 18.76 209.19 15.61 189.29 17.00 170.00 C 18.39 150.71 15.68 125.48 17.00 105.00 C 18.32 84.52 14.44 60.44 17.98 39.98 C 21.51 19.52 41.63 16.05 61.00 18.00 C 80.37 19.95 105.61 15.88 126.00 18.00 C 146.39 20.12 171.58 14.34 192.00 18.00 Z"/>
</g>
<g fill="None" fill-opacity="0.0" stroke="#000000" stroke-opacity="1.00" stroke-width="0.3"><path d="
M 321.00 6.00 
C 309.93 6.64 297.64 16.37 291.39 27.25 C 285.15 38.12 288.18 61.69 288.00 81.00 C 287.82 100.31 287.31 130.26 288.00 150.00 C 288.69 169.74 284.20 191.07 291.91 205.08 C 299.63 219.10 317.32 226.60 337.00 225.00 C 356.68 223.40 385.66 226.48 406.00 225.00 C 426.34 223.52 453.96 227.80 473.00 224.00 C 492.03 220.20 501.18 211.45 504.24 196.25 C 507.31 181.04 506.09 152.59 506.00 133.00 C 505.91 113.41 506.74 84.08 506.00 64.00 C 505.26 43.92 508.92 32.50 498.25 20.75 C 487.57 9.01 476.90 5.53 457.00 7.00 C 437.10 8.47 409.06 5.47 388.00 7.00 C 366.94 8.53 341.48 4.82 321.00 6.00
M 473.00 18.00 
C 495.22 21.61 496.69 47.25 495.00 67.00 C 493.31 86.75 497.30 117.37 495.00 138.00 C 492.70 158.63 501.92 185.60 489.08 203.08 C 476.24 220.56 447.80 212.94 428.00 214.00 C 408.20 215.06 376.55 213.87 357.00 214.00 C 337.45 214.13 310.24 219.11 301.70 198.30 C 293.15 177.50 301.79 152.36 299.00 130.00 C 296.21 107.64 301.83 80.06 299.00 58.00 C 296.17 35.94 306.44 16.33 330.00 18.00 C 353.56 19.67 377.59 15.91 401.00 18.00 C 424.41 20.09 448.90 14.09 472.00 18.00 Z"/>
</g>
<g fill="None" fill-opacity="0.0" stroke="#FCBA41" stroke-opacity="1.00" stroke-width="0.3"><path d="
M 192.00 18.00 
C 171.58 14.34 146.39 20.12 126.00 18.00 C 105.61 15.88 80.37 19.95 61.00 18.00 C 41.63 16.05 21.51 19.52 17.98 39.98 C 14.44 60.44 18.32 84.52 17.00 105.00 C 15.68 125.48 18.39 150.71 17.00 170.00 C 15.61 189.29 18.76 209.19 38.99 213.01 C 59.23 216.83 83.80 212.59 104.00 214.00 C 124.20 215.41 150.23 212.65 169.00 214.00 C 187.77 215.35 208.88 212.95 212.67 192.67 C 216.46 172.39 211.16 147.20 213.00 127.00 C 214.84 106.80 211.44 80.91 213.00 62.00 C 214.56 43.09 212.44 21.66 192.00 18.00
M 114.00 73.00 
C 131.24 56.94 155.89 27.43 179.75 50.25 C 203.61 73.07 176.80 99.68 158.00 115.00
C 173.48 132.05 203.97 156.33 181.23 180.23 C 158.49 204.13 130.95 176.94 116.00 158.00
C 99.70 175.34 74.26 203.75 50.75 181.25 C 27.24 158.75 54.08 130.95 73.00 116.00
C 55.21 99.42 27.56 74.89 50.25 51.25 C 72.93 27.60 98.68 54.27 114.00 73.00 Z"/>
</g>
<g fill="None" fill-opacity="0.0" stroke="#71A2D9" stroke-opacity="1.00" stroke-width="0.3"><path d="
M 472.00 18.00 
C 448.90 14.09 424.41 20.09 401.00 18.00 C 377.59 15.91 353.56 19.67 330.00 18.00 C 306.44 16.33 296.17 35.94 299.00 58.00 C 301.83 80.06 296.21 107.64 299.00 130.00 C 301.79 152.36 293.15 177.50 301.70 198.30 C 310.24 219.11 337.45 214.13 357.00 214.00 C 376.55 213.87 408.20 215.06 428.00 214.00 C 447.80 212.94 476.24 220.56 489.08 203.08 C 501.92 185.60 492.70 158.63 495.00 138.00 C 497.30 117.37 493.31 86.75 495.00 67.00 C 496.69 47.25 495.22 21.61 473.00 18.00
M 470.00 111.00 
C 470.27 113.82 470.27 117.24 470.00 120.00
C 470.00 155.46 437.31 188.29 402.00 189.00
C 398.77 189.39 395.13 189.30 392.00 189.00
C 328.39 189.00 302.58 105.96 344.75 63.75 C 386.93 21.54 470.00 47.47 470.00 111.00 Z"/>
</g>
<g fill="None" fill-opacity="0.0" stroke="#000000" stroke-opacity="1.00" stroke-width="0.3"><path d="
M 114.00 73.00 
C 98.68 54.27 72.93 27.60 50.25 51.25 C 27.56 74.89 55.21 99.42 73.00 116.00
C 54.08 130.95 27.24 158.75 50.75 181.25 C 74.26 203.75 99.70 175.34 116.00 158.00
C 130.95 176.94 158.49 204.13 181.23 180.23 C 203.97 156.33 173.48 132.05 158.00 115.00
C 176.80 99.68 203.61 73.07 179.75 50.25 C 155.89 27.43 131.24 56.94 114.00 73.00
M 119.00 86.00 
C 124.51 82.96 127.87 75.02 133.25 71.25 C 138.63 67.48 142.52 60.65 148.00 57.00
C 158.74 49.86 170.76 53.87 176.77 65.23 C 182.78 76.59 168.78 87.06 163.25 94.25 C 157.72 101.44 139.60 110.68 145.26 119.74 C 150.92 128.80 159.92 133.86 167.75 142.25 C 175.58 150.64 182.62 161.74 172.25 172.25 C 161.88 182.76 150.76 176.70 142.25 168.75 C 133.73 160.80 128.76 152.61 119.75 146.25 C 110.74 139.89 102.21 156.59 94.75 162.75 C 87.29 168.91 78.05 182.00 65.93 177.07 C 53.81 172.14 48.77 159.06 57.00 148.00
C 60.93 142.72 67.45 138.53 71.25 133.25 C 75.05 127.97 83.15 124.43 86.00 119.00
C 89.91 109.95 75.38 104.05 70.25 96.75 C 65.12 89.46 54.19 84.59 53.02 73.98 C 51.86 63.37 62.17 52.26 73.00 53.00 C 83.84 53.74 88.16 65.12 95.75 70.25 C 103.34 75.37 109.15 90.55 119.00 86.00 Z"/>
</g>
<g fill="None" fill-opacity="0.0" stroke="#000000" stroke-opacity="1.00" stroke-width="0.3"><path d="
M 392.00 189.00 
C 395.33 189.00 398.67 189.07 402.00 189.00
C 437.31 188.29 470.00 155.46 470.00 120.00
C 470.00 117.00 470.00 114.00 470.00 111.00
C 470.00 47.47 386.93 21.54 344.75 63.75 C 302.58 105.96 328.39 189.00 392.00 189.00
M 402.00 54.00 
C 454.78 56.01 476.14 123.76 440.75 159.75 C 405.36 195.74 335.00 173.17 335.00 120.00
C 334.72 117.11 334.66 113.85 335.00 111.00
C 335.59 81.58 362.56 54.59 392.00 54.00
C 395.32 53.60 398.72 53.53 402.00 54.00 Z"/>
</g>
<g fill="None" fill-opacity="0.0" stroke="#F2F2F2" stroke-opacity="1.00" stroke-width="0.3"><path d="
M 86.00 119.00 
C 83.40 125.02 75.57 128.42 71.75 133.75 C 67.94 139.08 61.21 143.17 57.00 148.00
C 48.77 159.06 53.81 172.14 65.93 177.07 C 78.05 182.00 87.29 168.91 94.75 162.75 C 102.21 156.59 110.74 139.89 119.75 146.25 C 128.76 152.61 133.73 160.80 142.25 168.75 C 150.76 176.70 161.88 182.76 172.25 172.25 C 182.62 161.74 175.58 150.64 167.75 142.25 C 159.92 133.86 150.92 128.80 145.26 119.74 C 139.60 110.68 157.72 101.44 163.25 94.25 C 168.78 87.06 182.78 76.59 176.77 65.23 C 170.76 53.87 158.74 49.86 148.00 57.00
C 138.17 64.68 130.42 80.72 119.00 86.00
C 109.15 90.55 103.34 75.37 95.75 70.25 C 88.16 65.12 83.84 53.74 73.00 53.00 C 62.17 52.26 51.86 63.37 53.02 73.98 C 54.19 84.59 65.12 89.46 70.25 96.75 C 75.38 104.05 89.91 109.95 86.00 119.00 Z"/>
</g>
<g fill="None" fill-opacity="0.0" stroke="#7E7E7E" stroke-opacity="1.00" stroke-width="0.3"><path d="
M 392.00 54.00 
C 395.31 53.93 398.69 53.87 402.00 54.00
C 398.72 53.53 395.32 53.60 392.00 54.00 Z"/>
</g>
<g fill="None" fill-opacity="0.0" stroke="#F1F1F1" stroke-opacity="1.00" stroke-width="0.3"><path d="
M 335.00 111.00 
C 334.94 114.00 335.00 117.00 335.00 120.00
C 335.00 173.17 405.36 195.74 440.75 159.75 C 476.14 123.76 454.78 56.01 402.00 54.00
C 398.69 53.87 395.31 53.93 392.00 54.00
C 362.56 54.59 335.59 81.58 335.00 111.00
M 401.00 155.00 
C 397.83 155.52 395.13 155.56 392.00 155.00
C 363.18 153.04 347.74 117.69 363.25 94.25 C 378.77 70.82 413.65 69.86 429.75 93.25 C 445.86 116.63 430.41 153.40 401.00 155.00 Z"/>
</g>
<g fill="None" fill-opacity="0.0" stroke="#787878" stroke-opacity="1.00" stroke-width="0.3"><path d="
M 119.00 86.00 
C 130.42 80.72 138.17 64.68 148.00 57.00
C 142.52 60.65 138.63 67.48 133.25 71.25 C 127.87 75.02 124.51 82.96 119.00 86.00 Z"/>
</g>
<g fill="None" fill-opacity="0.0" stroke="#000000" stroke-opacity="1.00" stroke-width="0.3"><path d="
M 392.00 155.00 
C 394.92 155.20 398.08 155.16 401.00 155.00
C 430.41 153.40 445.86 116.63 429.75 93.25 C 413.65 69.86 378.77 70.82 363.25 94.25 C 347.74 117.69 363.18 153.04 392.00 155.00
M 400.00 87.00 
C 436.21 91.46 429.67 148.38 393.00 144.00 C 356.33 139.62 364.49 82.62 400.00 87.00 Z"/>
</g>
<g fill="None" fill-opacity="0.0" stroke="#71A1D9" stroke-opacity="1.00" stroke-width="0.3"><path d="
M 400.00 87.00 
C 364.49 82.62 356.33 139.62 393.00 144.00 C 429.67 148.38 436.21 91.46 400.00 87.00 Z"/>
</g>
<g fill="None" fill-opacity="0.0" stroke="#8D8D8D" stroke-opacity="1.00" stroke-width="0.3"><path d="
M 335.00 120.00 
C 335.00 117.00 334.94 114.00 335.00 111.00
C 334.66 113.85 334.72 117.11 335.00 120.00 Z"/>
</g>
<g fill="None" fill-opacity="0.0" stroke="#3D5775" stroke-opacity="1.00" stroke-width="0.3"><path d="
M 470.00 120.00 
C 470.27 117.24 470.27 113.82 470.00 111.00
C 470.00 114.00 470.00 117.00 470.00 120.00 Z"/>
</g>
<g fill="None" fill-opacity="0.0" stroke="#797979" stroke-opacity="1.00" stroke-width="0.3"><path d="
M 57.00 148.00 
C 61.21 143.17 67.94 139.08 71.75 133.75 C 75.57 128.42 83.40 125.02 86.00 119.00
C 83.15 124.43 75.05 127.97 71.25 133.25 C 67.45 138.53 60.93 142.72 57.00 148.00 Z"/>
</g>
<g fill="None" fill-opacity="0.0" stroke="#747474" stroke-opacity="1.00" stroke-width="0.3"><path d="
M 401.00 155.00 
C 398.08 155.16 394.92 155.20 392.00 155.00
C 395.13 155.56 397.83 155.52 401.00 155.00 Z"/>
</g>
<g fill="None" fill-opacity="0.0" stroke="#38506C" stroke-opacity="1.00" stroke-width="0.3"><path d="
M 402.00 189.00 
C 398.67 189.07 395.33 189.00 392.00 189.00
C 395.13 189.30 398.77 189.39 402.00 189.00 Z"/>
</g>
<g fill="None" fill-opacity="0.0" stroke="#000000" stroke-opacity="1.00" stroke-width="0.3"><path d="
M 15.00 365.00 
C 24.58 366.26 20.47 346.86 21.00 340.00 C 21.53 333.14 19.88 318.87 23.78 311.78 C 27.67 304.69 31.42 299.48 40.02 297.03 C 48.63 294.57 59.18 294.82 69.00 295.00 C 78.82 295.18 89.90 294.90 100.00 295.00 C 110.10 295.10 121.89 294.92 132.00 295.00 C 142.11 295.08 153.17 294.88 163.00 295.00 C 172.83 295.12 184.29 294.42 193.22 295.78 C 202.15 297.14 207.15 299.85 212.75 307.25 C 218.36 314.65 216.83 324.45 217.00 334.00 C 217.17 343.55 216.91 354.99 217.00 365.00 C 217.09 375.01 216.92 386.88 217.00 397.00 C 217.08 407.12 216.88 418.04 217.00 428.00 C 217.12 437.96 216.75 449.44 217.00 459.00 C 217.25 468.56 216.26 476.06 209.75 482.75 C 203.23 489.43 196.59 491.15 187.00 491.00 C 177.41 490.85 166.04 491.05 156.00 491.00 C 145.96 490.95 134.15 491.00 124.00 491.00 C 113.85 491.00 103.02 490.93 93.00 491.00 C 82.98 491.07 71.69 490.83 62.00 491.00 C 52.31 491.17 42.52 491.81 34.77 487.23 C 27.02 482.65 24.16 476.70 22.01 468.99 C 19.86 461.28 21.87 446.10 21.00 439.00 C 20.13 431.90 25.05 412.01 15.00 413.00
C 8.83 413.61 9.92 421.25 10.00 427.00 C 10.08 432.75 9.82 438.94 10.00 446.00 C 10.18 453.06 9.58 454.76 10.00 464.00 C 10.42 473.23 14.50 484.00 21.25 490.75 C 28.00 497.50 37.68 502.05 47.00 502.00 C 56.32 501.95 57.44 502.02 65.00 502.00 C 72.56 501.98 77.09 502.00 84.00 502.00 C 90.91 502.00 96.35 501.99 103.00 502.00 C 109.65 502.01 114.31 501.96 121.00 502.00 C 127.69 502.04 132.96 501.91 140.00 502.00 C 147.04 502.09 151.14 501.79 159.00 502.00 C 166.86 502.21 166.96 501.51 177.00 502.00 C 187.04 502.49 200.53 502.57 208.92 496.92 C 217.30 491.27 222.79 485.74 226.07 476.07 C 229.35 466.41 227.63 451.36 228.00 441.00 C 228.37 430.64 227.80 430.20 228.00 422.00 C 228.20 413.80 227.86 411.13 228.00 404.00 C 228.14 396.87 227.82 391.81 228.00 385.00 C 228.18 378.19 227.65 373.88 228.00 367.00 C 228.35 360.12 227.29 355.38 228.00 348.00 C 228.71 340.62 226.45 337.58 228.00 329.00 C 229.55 320.42 227.44 311.13 224.39 305.75 C 221.34 300.37 217.39 293.38 210.92 290.13 C 204.45 286.88 203.32 284.97 193.67 284.33 C 184.02 283.69 166.15 284.11 156.00 284.00 C 145.85 283.89 145.88 284.06 138.00 284.00 C 130.12 283.94 126.00 284.04 119.00 284.00 C 112.00 283.96 106.55 284.06 100.00 284.00 C 93.45 283.94 88.29 284.12 82.00 284.00 C 75.71 283.88 69.15 284.25 63.00 284.00 C 56.85 283.75 51.04 284.56 45.08 284.07 C 39.12 283.57 40.81 286.80 35.08 286.94 C 29.36 287.08 23.89 293.40 18.09 299.08 C 12.29 304.76 16.53 301.55 13.13 307.08 C 9.74 312.62 10.09 323.77 10.00 333.00 C 9.91 342.23 11.45 343.89 10.00 352.00 C 8.55 360.11 13.07 359.71 15.00 365.00 Z"/>
</g>
<g fill="None" fill-opacity="0.0" stroke="#000000" stroke-opacity="0.99" stroke-width="0.3"><path d="
M 324.00 286.00 
C 311.72 286.60 303.29 291.91 295.13 301.08 C 286.97 310.25 286.42 317.41 287.00 334.00 C 287.58 350.59 286.65 376.30 287.00 394.00 C 287.35 411.70 286.65 435.61 287.00 453.00 C 287.35 470.39 284.22 478.94 293.61 488.25 C 303.00 497.55 305.52 505.34 319.25 505.60 C 332.98 505.87 358.38 504.80 375.00 505.00 C 391.62 505.20 418.42 505.53 435.00 505.00 C 451.58 504.47 471.12 507.81 481.90 502.91 C 492.68 498.00 500.39 489.87 503.65 478.70 C 506.91 467.52 504.59 445.29 505.00 429.00 C 505.41 412.71 505.13 386.44 505.00 370.00 C 504.87 353.56 506.14 329.57 504.31 316.70 C 502.48 303.82 494.34 298.83 484.30 291.71 C 474.26 284.59 458.74 286.86 441.00 287.00 C 423.26 287.14 400.46 286.08 382.00 287.00 C 363.54 287.92 341.79 285.12 324.00 286.00
M 470.00 298.00 
C 492.39 301.20 496.08 324.42 494.00 345.00 C 491.92 365.58 496.54 394.71 494.00 416.00 C 491.46 437.29 500.80 463.36 489.08 482.08 C 477.36 500.81 448.67 493.21 429.00 494.00 C 409.33 494.79 377.50 494.27 358.00 494.00 C 338.50 493.73 310.32 500.18 301.08 479.92 C 291.84 459.66 300.81 433.96 298.00 412.00 C 295.19 390.04 300.75 361.42 298.00 340.00 C 295.25 318.58 303.57 297.41 327.00 298.00 C 350.44 298.60 374.63 296.48 398.00 298.00 C 421.37 299.52 445.88 294.55 469.00 298.00 Z"/>
</g>
<g fill="None" fill-opacity="0.0" stroke="#71A2D9" stroke-opacity="1.00" stroke-width="0.3"><path d="
M 15.00 365.00 
C 17.57 372.06 13.66 381.49 15.00 389.00 C 16.34 396.51 13.99 405.37 15.00 413.00
C 25.05 412.01 20.13 431.90 21.00 439.00 C 21.87 446.10 19.86 461.28 22.01 468.99 C 24.16 476.70 27.02 482.65 34.77 487.23 C 42.52 491.81 52.31 491.17 62.00 491.00 C 71.69 490.83 82.98 491.07 93.00 491.00 C 103.02 490.93 113.85 491.00 124.00 491.00 C 134.15 491.00 145.96 490.95 156.00 491.00 C 166.04 491.05 177.41 490.85 187.00 491.00 C 196.59 491.15 203.23 489.43 209.75 482.75 C 216.26 476.06 217.25 468.56 217.00 459.00 C 216.75 449.44 217.12 437.96 217.00 428.00 C 216.88 418.04 217.08 407.12 217.00 397.00 C 216.92 386.88 217.09 375.01 217.00 365.00 C 216.91 354.99 217.17 343.55 217.00 334.00 C 216.83 324.45 218.36 314.65 212.75 307.25 C 207.15 299.85 202.15 297.14 193.22 295.78 C 184.29 294.42 172.83 295.12 163.00 295.00 C 153.17 294.88 142.11 295.08 132.00 295.00 C 121.89 294.92 110.10 295.10 100.00 295.00 C 89.90 294.90 78.82 295.18 69.00 295.00 C 59.18 294.82 48.63 294.57 40.02 297.03 C 31.42 299.48 27.67 304.69 23.78 311.78 C 19.88 318.87 21.53 333.14 21.00 340.00 C 20.47 346.86 24.58 366.26 15.00 365.00
M 124.00 320.00 
C 187.62 320.00 213.42 403.04 171.25 445.25 C 129.07 487.45 46.00 461.53 46.00 398.00
C 45.69 394.80 45.62 391.17 46.00 388.00
C 46.69 353.49 78.96 320.00 114.00 320.00
C 117.14 319.70 120.92 319.70 124.00 320.00 Z"/>
</g>
<g fill="None" fill-opacity="0.0" stroke="#ED2735" stroke-opacity="1.00" stroke-width="0.3"><path d="
M 469.00 298.00 
C 445.88 294.55 421.37 299.52 398.00 298.00 C 374.63 296.48 350.44 298.60 327.00 298.00 C 303.57 297.41 295.25 318.58 298.00 340.00 C 300.75 361.42 295.19 390.04 298.00 412.00 C 300.81 433.96 291.84 459.66 301.08 479.92 C 310.32 500.18 338.50 493.73 358.00 494.00 C 377.50 494.27 409.33 494.79 429.00 494.00 C 448.67 493.21 477.36 500.81 489.08 482.08 C 500.80 463.36 491.46 437.29 494.00 416.00 C 496.54 394.71 491.92 365.58 494.00 345.00 C 496.08 324.42 492.39 301.20 470.00 298.00
M 395.00 354.00 
C 411.31 336.65 436.70 308.30 460.25 330.75 C 483.79 353.21 456.95 381.12 438.00 396.00
C 455.73 412.44 483.44 437.32 460.75 460.75 C 438.06 484.19 412.34 457.75 397.00 439.00
C 379.81 455.04 355.02 484.50 331.25 461.75 C 307.48 439.00 334.16 412.25 353.00 397.00
C 337.25 379.51 307.35 356.29 330.25 332.25 C 353.15 308.20 379.60 334.80 395.00 354.00 Z"/>
</g>
<g fill="None" fill-opacity="0.0" stroke="#38506C" stroke-opacity="1.00" stroke-width="0.3"><path d="
M 114.00 320.00 
C 117.33 320.00 120.67 320.00 124.00 320.00
C 120.92 319.70 117.14 319.70 114.00 320.00 Z"/>
</g>
<g fill="None" fill-opacity="0.0" stroke="#000000" stroke-opacity="1.00" stroke-width="0.3"><path d="
M 46.00 388.00 
C 45.93 391.33 46.00 394.67 46.00 398.00
C 46.00 461.53 129.07 487.45 171.25 445.25 C 213.42 403.04 187.62 320.00 124.00 320.00
C 120.67 320.00 117.33 320.00 114.00 320.00
C 78.96 320.00 46.69 353.49 46.00 388.00
M 181.00 387.00 
C 181.57 390.98 181.56 395.09 181.00 399.00
C 179.88 428.38 153.02 453.89 124.00 455.00
C 120.96 455.43 117.95 455.36 115.00 455.00
C 62.00 453.94 39.81 385.75 74.75 349.75 C 109.70 313.76 179.00 334.54 181.00 387.00 Z"/>
</g>
<g fill="None" fill-opacity="0.0" stroke="#000000" stroke-opacity="1.00" stroke-width="0.3"><path d="
M 395.00 354.00 
C 379.60 334.80 353.15 308.20 330.25 332.25 C 307.35 356.29 337.25 379.51 353.00 397.00
C 334.16 412.25 307.48 439.00 331.25 461.75 C 355.02 484.50 379.81 455.04 397.00 439.00
C 412.34 457.75 438.06 484.19 460.75 460.75 C 483.44 437.32 455.73 412.44 438.00 396.00
C 456.95 381.12 483.79 353.21 460.25 330.75 C 436.70 308.30 411.31 336.65 395.00 354.00
M 454.00 364.00 
C 450.07 369.29 443.55 373.47 439.75 378.75 C 435.95 384.03 427.85 387.57 425.00 393.00
C 421.09 402.05 435.62 407.95 440.75 415.25 C 445.88 422.54 456.81 427.41 457.98 438.02 C 459.14 448.63 448.83 459.74 438.00 459.00 C 427.16 458.26 422.84 446.88 415.25 441.75 C 407.66 436.63 401.85 421.45 392.00 426.00
C 386.71 428.91 383.35 436.52 378.25 440.25 C 373.15 443.98 369.07 450.23 364.00 454.00
C 354.83 460.82 343.40 459.99 336.70 450.30 C 329.99 440.61 334.62 430.33 342.75 422.75 C 350.89 415.17 355.61 409.94 363.75 401.75 C 371.89 393.56 358.50 385.95 352.25 378.75 C 346.00 371.56 335.71 365.80 333.67 355.33 C 331.64 344.85 341.12 334.31 352.00 334.00 C 362.88 333.69 369.73 345.91 376.75 351.25 C 383.77 356.59 390.99 371.84 399.23 366.23 C 407.47 360.62 412.82 352.26 420.25 345.25 C 427.68 338.23 437.37 329.99 448.07 335.93 C 458.78 341.86 460.97 354.62 454.00 364.00 Z"/>
</g>
<g fill="None" fill-opacity="0.0" stroke="#F1F1F1" stroke-opacity="1.00" stroke-width="0.3"><path d="
M 115.00 455.00 
C 117.98 455.06 121.02 455.11 124.00 455.00
C 153.02 453.89 179.88 428.38 181.00 399.00
C 181.15 395.04 181.15 390.96 181.00 387.00
C 179.00 334.54 109.70 313.76 74.75 349.75 C 39.81 385.75 62.00 453.94 115.00 455.00
M 124.00 354.00 
C 152.86 355.96 168.12 391.27 152.75 414.75 C 137.37 438.23 102.29 439.13 86.25 415.75 C 70.21 392.38 85.54 355.60 115.00 354.00
C 118.17 353.48 120.87 353.44 124.00 354.00 Z"/>
</g>
<g fill="None" fill-opacity="0.0" stroke="#F2F2F2" stroke-opacity="1.00" stroke-width="0.3"><path d="
M 364.00 454.00 
C 372.87 446.27 381.26 430.96 392.00 426.00
C 401.85 421.45 407.66 436.63 415.25 441.75 C 422.84 446.88 427.16 458.26 438.00 459.00 C 448.83 459.74 459.14 448.63 457.98 438.02 C 456.81 427.41 445.88 422.54 440.75 415.25 C 435.62 407.95 421.09 402.05 425.00 393.00
C 427.60 386.98 435.43 383.58 439.25 378.25 C 443.06 372.92 449.79 368.83 454.00 364.00
C 460.97 354.62 458.78 341.86 448.07 335.93 C 437.37 329.99 427.68 338.23 420.25 345.25 C 412.82 352.26 407.47 360.62 399.23 366.23 C 390.99 371.84 383.77 356.59 376.75 351.25 C 369.73 345.91 362.88 333.69 352.00 334.00 C 341.12 334.31 331.64 344.85 333.67 355.33 C 335.71 365.80 346.00 371.56 352.25 378.75 C 358.50 385.95 371.89 393.56 363.75 401.75 C 355.61 409.94 350.89 415.17 342.75 422.75 C 334.62 430.33 329.99 440.61 336.70 450.30 C 343.40 459.99 354.83 460.82 364.00 454.00 Z"/>
</g>
<g fill="None" fill-opacity="0.0" stroke="#737373" stroke-opacity="1.00" stroke-width="0.3"><path d="
M 115.00 354.00 
C 117.93 353.84 121.08 353.80 124.00 354.00
C 120.87 353.44 118.17 353.48 115.00 354.00 Z"/>
</g>
<g fill="None" fill-opacity="0.0" stroke="#000000" stroke-opacity="1.00" stroke-width="0.3"><path d="
M 124.00 354.00 
C 121.08 353.80 117.93 353.84 115.00 354.00
C 85.54 355.60 70.21 392.38 86.25 415.75 C 102.29 439.13 137.37 438.23 152.75 414.75 C 168.12 391.27 152.86 355.96 124.00 354.00
M 125.00 365.00 
C 159.59 370.62 150.77 427.74 114.93 421.07 C 79.08 414.40 87.34 358.89 125.00 365.00 Z"/>
</g>
<g fill="None" fill-opacity="0.0" stroke="#797979" stroke-opacity="1.00" stroke-width="0.3"><path d="
M 425.00 393.00 
C 427.85 387.57 435.95 384.03 439.75 378.75 C 443.55 373.47 450.07 369.29 454.00 364.00
C 449.79 368.83 443.06 372.92 439.25 378.25 C 435.43 383.58 427.60 386.98 425.00 393.00 Z"/>
</g>
<g fill="None" fill-opacity="0.0" stroke="#71A1D9" stroke-opacity="1.00" stroke-width="0.3"><path d="
M 125.00 365.00 
C 87.34 358.89 79.08 414.40 114.93 421.07 C 150.77 427.74 159.59 370.62 125.00 365.00 Z"/>
</g>
<g fill="None" fill-opacity="0.0" stroke="#808080" stroke-opacity="1.00" stroke-width="0.3"><path d="
M 181.00 399.00 
C 181.56 395.09 181.57 390.98 181.00 387.00
C 181.15 390.96 181.15 395.04 181.00 399.00 Z"/>
</g>
<g fill="None" fill-opacity="0.0" stroke="#3D5775" stroke-opacity="1.00" stroke-width="0.3"><path d="
M 46.00 398.00 
C 46.00 394.67 45.93 391.33 46.00 388.00
C 45.62 391.17 45.69 394.80 46.00 398.00 Z"/>
</g>
<g fill="None" fill-opacity="0.0" stroke="#797979" stroke-opacity="1.00" stroke-width="0.3"><path d="
M 364.00 454.00 
C 369.07 450.23 373.15 443.98 378.25 440.25 C 383.35 436.52 386.71 428.91 392.00 426.00
C 381.26 430.96 372.87 446.27 364.00 454.00 Z"/>
</g>
<g fill="None" fill-opacity="0.0" stroke="#808080" stroke-opacity="1.00" stroke-width="0.3"><path d="
M 124.00 455.00 
C 121.02 455.11 117.98 455.06 115.00 455.00
C 117.95 455.36 120.96 455.43 124.00 455.00 Z"/>
</g>
<g fill="#000000" fill-opacity="0.02" stroke="None">
<path d="
M 0.00 512.00 
L 512.00 512.00
L 512.00 0.00
L 0.00 0.00
L 0.00 512.00
M 39.00 6.00 
C 55.70 4.50 76.88 8.14 95.00 7.00 C 113.12 5.86 137.46 7.20 155.00 7.00 C 172.54 6.80 191.58 4.86 201.92 10.13 C 212.25 15.40 219.97 22.87 222.35 33.70 C 224.73 44.53 224.60 66.23 224.00 83.00 C 223.40 99.77 225.38 125.95 224.00 143.00 C 222.62 160.05 227.36 182.83 223.65 196.70 C 219.94 210.57 208.62 221.44 192.98 223.98 C 177.33 226.51 152.58 224.82 135.00 225.00 C 117.42 225.18 92.67 225.52 75.00 225.00 C 57.33 224.48 36.23 228.94 22.30 217.70 C 8.38 206.45 6.01 198.73 6.00 182.00 C 5.99 165.27 5.92 140.66 6.00 123.00 C 6.08 105.34 5.79 80.13 6.00 63.00 C 6.21 45.87 4.55 33.38 11.39 24.25 C 18.23 15.11 28.42 6.95 39.00 6.00
M 321.00 6.00 
C 341.48 4.82 366.94 8.53 388.00 7.00 C 409.06 5.47 437.10 8.47 457.00 7.00 C 476.90 5.53 487.57 9.01 498.25 20.75 C 508.92 32.50 505.26 43.92 506.00 64.00 C 506.74 84.08 505.91 113.41 506.00 133.00 C 506.09 152.59 507.31 181.04 504.24 196.25 C 501.18 211.45 492.03 220.20 473.00 224.00 C 453.96 227.80 426.34 223.52 406.00 225.00 C 385.66 226.48 356.68 223.40 337.00 225.00 C 317.32 226.60 299.63 219.10 291.91 205.08 C 284.20 191.07 288.69 169.74 288.00 150.00 C 287.31 130.26 287.82 100.31 288.00 81.00 C 288.18 61.69 285.15 38.12 291.39 27.25 C 297.64 16.37 309.93 6.64 321.00 6.00
M 15.00 413.00 
C 13.99 405.37 16.34 396.51 15.00 389.00 C 13.66 381.49 17.57 372.06 15.00 365.00
C 13.07 359.71 8.55 360.11 10.00 352.00 C 11.45 343.89 9.91 342.23 10.00 333.00 C 10.09 323.77 9.74 312.62 13.13 307.08 C 16.53 301.55 12.29 304.76 18.09 299.08 C 23.89 293.40 29.36 287.08 35.08 286.94 C 40.81 286.80 39.12 283.57 45.08 284.07 C 51.04 284.56 56.85 283.75 63.00 284.00 C 69.15 284.25 75.71 283.88 82.00 284.00 C 88.29 284.12 93.45 283.94 100.00 284.00 C 106.55 284.06 112.00 283.96 119.00 284.00 C 126.00 284.04 130.12 283.94 138.00 284.00 C 145.88 284.06 145.85 283.89 156.00 284.00 C 166.15 284.11 184.02 283.69 193.67 284.33 C 203.32 284.97 204.45 286.88 210.92 290.13 C 217.39 293.38 221.34 300.37 224.39 305.75 C 227.44 311.13 229.55 320.42 228.00 329.00 C 226.45 337.58 228.71 340.62 228.00 348.00 C 227.29 355.38 228.35 360.12 228.00 367.00 C 227.65 373.88 228.18 378.19 228.00 385.00 C 227.82 391.81 228.14 396.87 228.00 404.00 C 227.86 411.13 228.20 413.80 228.00 422.00 C 227.80 430.20 228.37 430.64 228.00 441.00 C 227.63 451.36 229.35 466.41 226.07 476.07 C 222.79 485.74 217.30 491.27 208.92 496.92 C 200.53 502.57 187.04 502.49 177.00 502.00 C 166.96 501.51 166.86 502.21 159.00 502.00 C 151.14 501.79 147.04 502.09 140.00 502.00 C 132.96 501.91 127.69 502.04 121.00 502.00 C 114.31 501.96 109.65 502.01 103.00 502.00 C 96.35 501.99 90.91 502.00 84.00 502.00 C 77.09 502.00 72.56 501.98 65.00 502.00 C 57.44 502.02 56.32 501.95 47.00 502.00 C 37.68 502.05 28.00 497.50 21.25 490.75 C 14.50 484.00 10.42 473.23 10.00 464.00 C 9.58 454.76 10.18 453.06 10.00 446.00 C 9.82 438.94 10.08 432.75 10.00 427.00 C 9.92 421.25 8.83 413.61 15.00 413.00
M 324.00 286.00 
C 341.79 285.12 363.54 287.92 382.00 287.00 C 400.46 286.08 423.26 287.14 441.00 287.00 C 458.74 286.86 474.26 284.59 484.30 291.71 C 494.34 298.83 502.48 303.82 504.31 316.70 C 506.14 329.57 504.87 353.56 505.00 370.00 C 505.13 386.44 505.41 412.71 505.00 429.00 C 504.59 445.29 506.91 467.52 503.65 478.70 C 500.39 489.87 492.68 498.00 481.90 502.91 C 471.12 507.81 451.58 504.47 435.00 505.00 C 418.42 505.53 391.62 505.20 375.00 505.00 C 358.38 504.80 332.98 505.87 319.25 505.60 C 305.52 505.34 303.00 497.55 293.61 488.25 C 284.22 478.94 287.35 470.39 287.00 453.00 C 286.65 435.61 287.35 411.70 287.00 394.00 C 286.65 376.30 287.58 350.59 287.00 334.00 C 286.42 317.41 286.97 310.25 295.13 301.08 C 303.29 291.91 311.72 286.60 324.00 286.00 Z"/>
</g>
<g fill="#000000" fill-opacity="1.00" stroke="None">
<path d="
M 39.00 6.00 
C 28.42 6.95 18.23 15.11 11.39 24.25 C 4.55 33.38 6.21 45.87 6.00 63.00 C 5.79 80.13 6.08 105.34 6.00 123.00 C 5.92 140.66 5.99 165.27 6.00 182.00 C 6.01 198.73 8.38 206.45 22.30 217.70 C 36.23 228.94 57.33 224.48 75.00 225.00 C 92.67 225.52 117.42 225.18 135.00 225.00 C 152.58 224.82 177.33 226.51 192.98 223.98 C 208.62 221.44 219.94 210.57 223.65 196.70 C 227.36 182.83 222.62 160.05 224.00 143.00 C 225.38 125.95 223.40 99.77 224.00 83.00 C 224.60 66.23 224.73 44.53 222.35 33.70 C 219.97 22.87 212.25 15.40 201.92 10.13 C 191.58 4.86 172.54 6.80 155.00 7.00 C 137.46 7.20 113.12 5.86 95.00 7.00 C 76.88 8.14 55.70 4.50 39.00 6.00
M 192.00 18.00 
C 212.44 21.66 214.56 43.09 213.00 62.00 C 211.44 80.91 214.84 106.80 213.00 127.00 C 211.16 147.20 216.46 172.39 212.67 192.67 C 208.88 212.95 187.77 215.35 169.00 214.00 C 150.23 212.65 124.20 215.41 104.00 214.00 C 83.80 212.59 59.23 216.83 38.99 213.01 C 18.76 209.19 15.61 189.29 17.00 170.00 C 18.39 150.71 15.68 125.48 17.00 105.00 C 18.32 84.52 14.44 60.44 17.98 39.98 C 21.51 19.52 41.63 16.05 61.00 18.00 C 80.37 19.95 105.61 15.88 126.00 18.00 C 146.39 20.12 171.58 14.34 192.00 18.00 Z"/>
</g>
<g fill="#000000" fill-opacity="1.00" stroke="None">
<path d="
M 321.00 6.00 
C 309.93 6.64 297.64 16.37 291.39 27.25 C 285.15 38.12 288.18 61.69 288.00 81.00 C 287.82 100.31 287.31 130.26 288.00 150.00 C 288.69 169.74 284.20 191.07 291.91 205.08 C 299.63 219.10 317.32 226.60 337.00 225.00 C 356.68 223.40 385.66 226.48 406.00 225.00 C 426.34 223.52 453.96 227.80 473.00 224.00 C 492.03 220.20 501.18 211.45 504.24 196.25 C 507.31 181.04 506.09 152.59 506.00 133.00 C 505.91 113.41 506.74 84.08 506.00 64.00 C 505.26 43.92 508.92 32.50 498.25 20.75 C 487.57 9.01 476.90 5.53 457.00 7.00 C 437.10 8.47 409.06 5.47 388.00 7.00 C 366.94 8.53 341.48 4.82 321.00 6.00
M 473.00 18.00 
C 495.22 21.61 496.69 47.25 495.00 67.00 C 493.31 86.75 497.30 117.37 495.00 138.00 C 492.70 158.63 501.92 185.60 489.08 203.08 C 476.24 220.56 447.80 212.94 428.00 214.00 C 408.20 215.06 376.55 213.87 357.00 214.00 C 337.45 214.13 310.24 219.11 301.70 198.30 C 293.15 177.50 301.79 152.36 299.00 130.00 C 296.21 107.64 301.83 80.06 299.00 58.00 C 296.17 35.94 306.44 16.33 330.00 18.00 C 353.56 19.67 377.59 15.91 401.00 18.00 C 424.41 20.09 448.90 14.09 472.00 18.00 Z"/>
</g>
<g fill="#FCBA41" fill-opacity="1.00" stroke="None">
<path d="
M 192.00 18.00 
C 171.58 14.34 146.39 20.12 126.00 18.00 C 105.61 15.88 80.37 19.95 61.00 18.00 C 41.63 16.05 21.51 19.52 17.98 39.98 C 14.44 60.44 18.32 84.52 17.00 105.00 C 15.68 125.48 18.39 150.71 17.00 170.00 C 15.61 189.29 18.76 209.19 38.99 213.01 C 59.23 216.83 83.80 212.59 104.00 214.00 C 124.20 215.41 150.23 212.65 169.00 214.00 C 187.77 215.35 208.88 212.95 212.67 192.67 C 216.46 172.39 211.16 147.20 213.00 127.00 C 214.84 106.80 211.44 80.91 213.00 62.00 C 214.56 43.09 212.44 21.66 192.00 18.00
M 114.00 73.00 
C 131.24 56.94 155.89 27.43 179.75 50.25 C 203.61 73.07 176.80 99.68 158.00 115.00
C 173.48 132.05 203.97 156.33 181.23 180.23 C 158.49 204.13 130.95 176.94 116.00 158.00
C 99.70 175.34 74.26 203.75 50.75 181.25 C 27.24 158.75 54.08 130.95 73.00 116.00
C 55.21 99.42 27.56 74.89 50.25 51.25 C 72.93 27.60 98.68 54.27 114.00 73.00 Z"/>
</g>
<g fill="#71A2D9" fill-opacity="1.00" stroke="None">
<path d="
M 472.00 18.00 
C 448.90 14.09 424.41 20.09 401.00 18.00 C 377.59 15.91 353.56 19.67 330.00 18.00 C 306.44 16.33 296.17 35.94 299.00 58.00 C 301.83 80.06 296.21 107.64 299.00 130.00 C 301.79 152.36 293.15 177.50 301.70 198.30 C 310.24 219.11 337.45 214.13 357.00 214.00 C 376.55 213.87 408.20 215.06 428.00 214.00 C 447.80 212.94 476.24 220.56 489.08 203.08 C 501.92 185.60 492.70 158.63 495.00 138.00 C 497.30 117.37 493.31 86.75 495.00 67.00 C 496.69 47.25 495.22 21.61 473.00 18.00
M 470.00 111.00 
C 470.27 113.82 470.27 117.24 470.00 120.00
C 470.00 155.46 437.31 188.29 402.00 189.00
C 398.77 189.39 395.13 189.30 392.00 189.00
C 328.39 189.00 302.58 105.96 344.75 63.75 C 386.93 21.54 470.00 47.47 470.00 111.00 Z"/>
</g>
<g fill="#000000" fill-opacity="1.00" stroke="None">
<path d="
M 114.00 73.00 
C 98.68 54.27 72.93 27.60 50.25 51.25 C 27.56 74.89 55.21 99.42 73.00 116.00
C 54.08 130.95 27.24 158.75 50.75 181.25 C 74.26 203.75 99.70 175.34 116.00 158.00
C 130.95 176.94 158.49 204.13 181.23 180.23 C 203.97 156.33 173.48 132.05 158.00 115.00
C 176.80 99.68 203.61 73.07 179.75 50.25 C 155.89 27.43 131.24 56.94 114.00 73.00
M 119.00 86.00 
C 124.51 82.96 127.87 75.02 133.25 71.25 C 138.63 67.48 142.52 60.65 148.00 57.00
C 158.74 49.86 170.76 53.87 176.77 65.23 C 182.78 76.59 168.78 87.06 163.25 94.25 C 157.72 101.44 139.60 110.68 145.26 119.74 C 150.92 128.80 159.92 133.86 167.75 142.25 C 175.58 150.64 182.62 161.74 172.25 172.25 C 161.88 182.76 150.76 176.70 142.25 168.75 C 133.73 160.80 128.76 152.61 119.75 146.25 C 110.74 139.89 102.21 156.59 94.75 162.75 C 87.29 168.91 78.05 182.00 65.93 177.07 C 53.81 172.14 48.77 159.06 57.00 148.00
C 60.93 142.72 67.45 138.53 71.25 133.25 C 75.05 127.97 83.15 124.43 86.00 119.00
C 89.91 109.95 75.38 104.05 70.25 96.75 C 65.12 89.46 54.19 84.59 53.02 73.98 C 51.86 63.37 62.17 52.26 73.00 53.00 C 83.84 53.74 88.16 65.12 95.75 70.25 C 103.34 75.37 109.15 90.55 119.00 86.00 Z"/>
</g>
<g fill="#000000" fill-opacity="1.00" stroke="None">
<path d="
M 392.00 189.00 
C 395.33 189.00 398.67 189.07 402.00 189.00
C 437.31 188.29 470.00 155.46 470.00 120.00
C 470.00 117.00 470.00 114.00 470.00 111.00
C 470.00 47.47 386.93 21.54 344.75 63.75 C 302.58 105.96 328.39 189.00 392.00 189.00
M 402.00 54.00 
C 454.78 56.01 476.14 123.76 440.75 159.75 C 405.36 195.74 335.00 173.17 335.00 120.00
C 334.72 117.11 334.66 113.85 335.00 111.00
C 335.59 81.58 362.56 54.59 392.00 54.00
C 395.32 53.60 398.72 53.53 402.00 54.00 Z"/>
</g>
<g fill="#F2F2F2" fill-opacity="1.00" stroke="None">
<path d="
M 86.00 119.00 
C 83.40 125.02 75.57 128.42 71.75 133.75 C 67.94 139.08 61.21 143.17 57.00 148.00
C 48.77 159.06 53.81 172.14 65.93 177.07 C 78.05 182.00 87.29 168.91 94.75 162.75 C 102.21 156.59 110.74 139.89 119.75 146.25 C 128.76 152.61 133.73 160.80 142.25 168.75 C 150.76 176.70 161.88 182.76 172.25 172.25 C 182.62 161.74 175.58 150.64 167.75 142.25 C 159.92 133.86 150.92 128.80 145.26 119.74 C 139.60 110.68 157.72 101.44 163.25 94.25 C 168.78 87.06 182.78 76.59 176.77 65.23 C 170.76 53.87 158.74 49.86 148.00 57.00
C 138.17 64.68 130.42 80.72 119.00 86.00
C 109.15 90.55 103.34 75.37 95.75 70.25 C 88.16 65.12 83.84 53.74 73.00 53.00 C 62.17 52.26 51.86 63.37 53.02 73.98 C 54.19 84.59 65.12 89.46 70.25 96.75 C 75.38 104.05 89.91 109.95 86.00 119.00 Z"/>
</g>
<g fill="#7E7E7E" fill-opacity="1.00" stroke="None">
<path d="
M 392.00 54.00 
C 395.31 53.93 398.69 53.87 402.00 54.00
C 398.72 53.53 395.32 53.60 392.00 54.00 Z"/>
</g>
<g fill="#F1F1F1" fill-opacity="1.00" stroke="None">
<path d="
M 335.00 111.00 
C 334.94 114.00 335.00 117.00 335.00 120.00
C 335.00 173.17 405.36 195.74 440.75 159.75 C 476.14 123.76 454.78 56.01 402.00 54.00
C 398.69 53.87 395.31 53.93 392.00 54.00
C 362.56 54.59 335.59 81.58 335.00 111.00
M 401.00 155.00 
C 397.83 155.52 395.13 155.56 392.00 155.00
C 363.18 153.04 347.74 117.69 363.25 94.25 C 378.77 70.82 413.65 69.86 429.75 93.25 C 445.86 116.63 430.41 153.40 401.00 155.00 Z"/>
</g>
<g fill="#787878" fill-opacity="1.00" stroke="None">
<path d="
M 119.00 86.00 
C 130.42 80.72 138.17 64.68 148.00 57.00
C 142.52 60.65 138.63 67.48 133.25 71.25 C 127.87 75.02 124.51 82.96 119.00 86.00 Z"/>
</g>
<g fill="#000000" fill-opacity="1.00" stroke="None">
<path d="
M 392.00 155.00 
C 394.92 155.20 398.08 155.16 401.00 155.00
C 430.41 153.40 445.86 116.63 429.75 93.25 C 413.65 69.86 378.77 70.82 363.25 94.25 C 347.74 117.69 363.18 153.04 392.00 155.00
M 400.00 87.00 
C 436.21 91.46 429.67 148.38 393.00 144.00 C 356.33 139.62 364.49 82.62 400.00 87.00 Z"/>
</g>
<g fill="#71A1D9" fill-opacity="1.00" stroke="None">
<path d="
M 400.00 87.00 
C 364.49 82.62 356.33 139.62 393.00 144.00 C 429.67 148.38 436.21 91.46 400.00 87.00 Z"/>
</g>
<g fill="#8D8D8D" fill-opacity="1.00" stroke="None">
<path d="
M 335.00 120.00 
C 335.00 117.00 334.94 114.00 335.00 111.00
C 334.66 113.85 334.72 117.11 335.00 120.00 Z"/>
</g>
<g fill="#3D5775" fill-opacity="1.00" stroke="None">
<path d="
M 470.00 120.00 
C 470.27 117.24 470.27 113.82 470.00 111.00
C 470.00 114.00 470.00 117.00 470.00 120.00 Z"/>
</g>
<g fill="#797979" fill-opacity="1.00" stroke="None">
<path d="
M 57.00 148.00 
C 61.21 143.17 67.94 139.08 71.75 133.75 C 75.57 128.42 83.40 125.02 86.00 119.00
C 83.15 124.43 75.05 127.97 71.25 133.25 C 67.45 138.53 60.93 142.72 57.00 148.00 Z"/>
</g>
<g fill="#747474" fill-opacity="1.00" stroke="None">
<path d="
M 401.00 155.00 
C 398.08 155.16 394.92 155.20 392.00 155.00
C 395.13 155.56 397.83 155.52 401.00 155.00 Z"/>
</g>
<g fill="#38506C" fill-opacity="1.00" stroke="None">
<path d="
M 402.00 189.00 
C 398.67 189.07 395.33 189.00 392.00 189.00
C 395.13 189.30 398.77 189.39 402.00 189.00 Z"/>
</g>
<g fill="#000000" fill-opacity="1.00" stroke="None">
<path d="
M 15.00 365.00 
C 24.58 366.26 20.47 346.86 21.00 340.00 C 21.53 333.14 19.88 318.87 23.78 311.78 C 27.67 304.69 31.42 299.48 40.02 297.03 C 48.63 294.57 59.18 294.82 69.00 295.00 C 78.82 295.18 89.90 294.90 100.00 295.00 C 110.10 295.10 121.89 294.92 132.00 295.00 C 142.11 295.08 153.17 294.88 163.00 295.00 C 172.83 295.12 184.29 294.42 193.22 295.78 C 202.15 297.14 207.15 299.85 212.75 307.25 C 218.36 314.65 216.83 324.45 217.00 334.00 C 217.17 343.55 216.91 354.99 217.00 365.00 C 217.09 375.01 216.92 386.88 217.00 397.00 C 217.08 407.12 216.88 418.04 217.00 428.00 C 217.12 437.96 216.75 449.44 217.00 459.00 C 217.25 468.56 216.26 476.06 209.75 482.75 C 203.23 489.43 196.59 491.15 187.00 491.00 C 177.41 490.85 166.04 491.05 156.00 491.00 C 145.96 490.95 134.15 491.00 124.00 491.00 C 113.85 491.00 103.02 490.93 93.00 491.00 C 82.98 491.07 71.69 490.83 62.00 491.00 C 52.31 491.17 42.52 491.81 34.77 487.23 C 27.02 482.65 24.16 476.70 22.01 468.99 C 19.86 461.28 21.87 446.10 21.00 439.00 C 20.13 431.90 25.05 412.01 15.00 413.00
C 8.83 413.61 9.92 421.25 10.00 427.00 C 10.08 432.75 9.82 438.94 10.00 446.00 C 10.18 453.06 9.58 454.76 10.00 464.00 C 10.42 473.23 14.50 484.00 21.25 490.75 C 28.00 497.50 37.68 502.05 47.00 502.00 C 56.32 501.95 57.44 502.02 65.00 502.00 C 72.56 501.98 77.09 502.00 84.00 502.00 C 90.91 502.00 96.35 501.99 103.00 502.00 C 109.65 502.01 114.31 501.96 121.00 502.00 C 127.69 502.04 132.96 501.91 140.00 502.00 C 147.04 502.09 151.14 501.79 159.00 502.00 C 166.86 502.21 166.96 501.51 177.00 502.00 C 187.04 502.49 200.53 502.57 208.92 496.92 C 217.30 491.27 222.79 485.74 226.07 476.07 C 229.35 466.41 227.63 451.36 228.00 441.00 C 228.37 430.64 227.80 430.20 228.00 422.00 C 228.20 413.80 227.86 411.13 228.00 404.00 C 228.14 396.87 227.82 391.81 228.00 385.00 C 228.18 378.19 227.65 373.88 228.00 367.00 C 228.35 360.12 227.29 355.38 228.00 348.00 C 228.71 340.62 226.45 337.58 228.00 329.00 C 229.55 320.42 227.44 311.13 224.39 305.75 C 221.34 300.37 217.39 293.38 210.92 290.13 C 204.45 286.88 203.32 284.97 193.67 284.33 C 184.02 283.69 166.15 284.11 156.00 284.00 C 145.85 283.89 145.88 284.06 138.00 284.00 C 130.12 283.94 126.00 284.04 119.00 284.00 C 112.00 283.96 106.55 284.06 100.00 284.00 C 93.45 283.94 88.29 284.12 82.00 284.00 C 75.71 283.88 69.15 284.25 63.00 284.00 C 56.85 283.75 51.04 284.56 45.08 284.07 C 39.12 283.57 40.81 286.80 35.08 286.94 C 29.36 287.08 23.89 293.40 18.09 299.08 C 12.29 304.76 16.53 301.55 13.13 307.08 C 9.74 312.62 10.09 323.77 10.00 333.00 C 9.91 342.23 11.45 343.89 10.00 352.00 C 8.55 360.11 13.07 359.71 15.00 365.00 Z"/>
</g>
<g fill="#000000" fill-opacity="0.99" stroke="None">
<path d="
M 324.00 286.00 
C 311.72 286.60 303.29 291.91 295.13 301.08 C 286.97 310.25 286.42 317.41 287.00 334.00 C 287.58 350.59 286.65 376.30 287.00 394.00 C 287.35 411.70 286.65 435.61 287.00 453.00 C 287.35 470.39 284.22 478.94 293.61 488.25 C 303.00 497.55 305.52 505.34 319.25 505.60 C 332.98 505.87 358.38 504.80 375.00 505.00 C 391.62 505.20 418.42 505.53 435.00 505.00 C 451.58 504.47 471.12 507.81 481.90 502.91 C 492.68 498.00 500.39 489.87 503.65 478.70 C 506.91 467.52 504.59 445.29 505.00 429.00 C 505.41 412.71 505.13 386.44 505.00 370.00 C 504.87 353.56 506.14 329.57 504.31 316.70 C 502.48 303.82 494.34 298.83 484.30 291.71 C 474.26 284.59 458.74 286.86 441.00 287.00 C 423.26 287.14 400.46 286.08 382.00 287.00 C 363.54 287.92 341.79 285.12 324.00 286.00
M 470.00 298.00 
C 492.39 301.20 496.08 324.42 494.00 345.00 C 491.92 365.58 496.54 394.71 494.00 416.00 C 491.46 437.29 500.80 463.36 489.08 482.08 C 477.36 500.81 448.67 493.21 429.00 494.00 C 409.33 494.79 377.50 494.27 358.00 494.00 C 338.50 493.73 310.32 500.18 301.08 479.92 C 291.84 459.66 300.81 433.96 298.00 412.00 C 295.19 390.04 300.75 361.42 298.00 340.00 C 295.25 318.58 303.57 297.41 327.00 298.00 C 350.44 298.60 374.63 296.48 398.00 298.00 C 421.37 299.52 445.88 294.55 469.00 298.00 Z"/>
</g>
<g fill="#71A2D9" fill-opacity="1.00" stroke="None">
<path d="
M 15.00 365.00 
C 17.57 372.06 13.66 381.49 15.00 389.00 C 16.34 396.51 13.99 405.37 15.00 413.00
C 25.05 412.01 20.13 431.90 21.00 439.00 C 21.87 446.10 19.86 461.28 22.01 468.99 C 24.16 476.70 27.02 482.65 34.77 487.23 C 42.52 491.81 52.31 491.17 62.00 491.00 C 71.69 490.83 82.98 491.07 93.00 491.00 C 103.02 490.93 113.85 491.00 124.00 491.00 C 134.15 491.00 145.96 490.95 156.00 491.00 C 166.04 491.05 177.41 490.85 187.00 491.00 C 196.59 491.15 203.23 489.43 209.75 482.75 C 216.26 476.06 217.25 468.56 217.00 459.00 C 216.75 449.44 217.12 437.96 217.00 428.00 C 216.88 418.04 217.08 407.12 217.00 397.00 C 216.92 386.88 217.09 375.01 217.00 365.00 C 216.91 354.99 217.17 343.55 217.00 334.00 C 216.83 324.45 218.36 314.65 212.75 307.25 C 207.15 299.85 202.15 297.14 193.22 295.78 C 184.29 294.42 172.83 295.12 163.00 295.00 C 153.17 294.88 142.11 295.08 132.00 295.00 C 121.89 294.92 110.10 295.10 100.00 295.00 C 89.90 294.90 78.82 295.18 69.00 295.00 C 59.18 294.82 48.63 294.57 40.02 297.03 C 31.42 299.48 27.67 304.69 23.78 311.78 C 19.88 318.87 21.53 333.14 21.00 340.00 C 20.47 346.86 24.58 366.26 15.00 365.00
M 124.00 320.00 
C 187.62 320.00 213.42 403.04 171.25 445.25 C 129.07 487.45 46.00 461.53 46.00 398.00
C 45.69 394.80 45.62 391.17 46.00 388.00
C 46.69 353.49 78.96 320.00 114.00 320.00
C 117.14 319.70 120.92 319.70 124.00 320.00 Z"/>
</g>
<g fill="#ED2735" fill-opacity="1.00" stroke="None">
<path d="
M 469.00 298.00 
C 445.88 294.55 421.37 299.52 398.00 298.00 C 374.63 296.48 350.44 298.60 327.00 298.00 C 303.57 297.41 295.25 318.58 298.00 340.00 C 300.75 361.42 295.19 390.04 298.00 412.00 C 300.81 433.96 291.84 459.66 301.08 479.92 C 310.32 500.18 338.50 493.73 358.00 494.00 C 377.50 494.27 409.33 494.79 429.00 494.00 C 448.67 493.21 477.36 500.81 489.08 482.08 C 500.80 463.36 491.46 437.29 494.00 416.00 C 496.54 394.71 491.92 365.58 494.00 345.00 C 496.08 324.42 492.39 301.20 470.00 298.00
M 395.00 354.00 
C 411.31 336.65 436.70 308.30 460.25 330.75 C 483.79 353.21 456.95 381.12 438.00 396.00
C 455.73 412.44 483.44 437.32 460.75 460.75 C 438.06 484.19 412.34 457.75 397.00 439.00
C 379.81 455.04 355.02 484.50 331.25 461.75 C 307.48 439.00 334.16 412.25 353.00 397.00
C 337.25 379.51 307.35 356.29 330.25 332.25 C 353.15 308.20 379.60 334.80 395.00 354.00 Z"/>
</g>
<g fill="#38506C" fill-opacity="1.00" stroke="None">
<path d="
M 114.00 320.00 
C 117.33 320.00 120.67 320.00 124.00 320.00
C 120.92 319.70 117.14 319.70 114.00 320.00 Z"/>
</g>
<g fill="#000000" fill-opacity="1.00" stroke="None">
<path d="
M 46.00 388.00 
C 45.93 391.33 46.00 394.67 46.00 398.00
C 46.00 461.53 129.07 487.45 171.25 445.25 C 213.42 403.04 187.62 320.00 124.00 320.00
C 120.67 320.00 117.33 320.00 114.00 320.00
C 78.96 320.00 46.69 353.49 46.00 388.00
M 181.00 387.00 
C 181.57 390.98 181.56 395.09 181.00 399.00
C 179.88 428.38 153.02 453.89 124.00 455.00
C 120.96 455.43 117.95 455.36 115.00 455.00
C 62.00 453.94 39.81 385.75 74.75 349.75 C 109.70 313.76 179.00 334.54 181.00 387.00 Z"/>
</g>
<g fill="#000000" fill-opacity="1.00" stroke="None">
<path d="
M 395.00 354.00 
C 379.60 334.80 353.15 308.20 330.25 332.25 C 307.35 356.29 337.25 379.51 353.00 397.00
C 334.16 412.25 307.48 439.00 331.25 461.75 C 355.02 484.50 379.81 455.04 397.00 439.00
C 412.34 457.75 438.06 484.19 460.75 460.75 C 483.44 437.32 455.73 412.44 438.00 396.00
C 456.95 381.12 483.79 353.21 460.25 330.75 C 436.70 308.30 411.31 336.65 395.00 354.00
M 454.00 364.00 
C 450.07 369.29 443.55 373.47 439.75 378.75 C 435.95 384.03 427.85 387.57 425.00 393.00
C 421.09 402.05 435.62 407.95 440.75 415.25 C 445.88 422.54 456.81 427.41 457.98 438.02 C 459.14 448.63 448.83 459.74 438.00 459.00 C 427.16 458.26 422.84 446.88 415.25 441.75 C 407.66 436.63 401.85 421.45 392.00 426.00
C 386.71 428.91 383.35 436.52 378.25 440.25 C 373.15 443.98 369.07 450.23 364.00 454.00
C 354.83 460.82 343.40 459.99 336.70 450.30 C 329.99 440.61 334.62 430.33 342.75 422.75 C 350.89 415.17 355.61 409.94 363.75 401.75 C 371.89 393.56 358.50 385.95 352.25 378.75 C 346.00 371.56 335.71 365.80 333.67 355.33 C 331.64 344.85 341.12 334.31 352.00 334.00 C 362.88 333.69 369.73 345.91 376.75 351.25 C 383.77 356.59 390.99 371.84 399.23 366.23 C 407.47 360.62 412.82 352.26 420.25 345.25 C 427.68 338.23 437.37 329.99 448.07 335.93 C 458.78 341.86 460.97 354.62 454.00 364.00 Z"/>
</g>
<g fill="#F1F1F1" fill-opacity="1.00" stroke="None">
<path d="
M 115.00 455.00 
C 117.98 455.06 121.02 455.11 124.00 455.00
C 153.02 453.89 179.88 428.38 181.00 399.00
C 181.15 395.04 181.15 390.96 181.00 387.00
C 179.00 334.54 109.70 313.76 74.75 349.75 C 39.81 385.75 62.00 453.94 115.00 455.00
M 124.00 354.00 
C 152.86 355.96 168.12 391.27 152.75 414.75 C 137.37 438.23 102.29 439.13 86.25 415.75 C 70.21 392.38 85.54 355.60 115.00 354.00
C 118.17 353.48 120.87 353.44 124.00 354.00 Z"/>
</g>
<g fill="#F2F2F2" fill-opacity="1.00" stroke="None">
<path d="
M 364.00 454.00 
C 372.87 446.27 381.26 430.96 392.00 426.00
C 401.85 421.45 407.66 436.63 415.25 441.75 C 422.84 446.88 427.16 458.26 438.00 459.00 C 448.83 459.74 459.14 448.63 457.98 438.02 C 456.81 427.41 445.88 422.54 440.75 415.25 C 435.62 407.95 421.09 402.05 425.00 393.00
C 427.60 386.98 435.43 383.58 439.25 378.25 C 443.06 372.92 449.79 368.83 454.00 364.00
C 460.97 354.62 458.78 341.86 448.07 335.93 C 437.37 329.99 427.68 338.23 420.25 345.25 C 412.82 352.26 407.47 360.62 399.23 366.23 C 390.99 371.84 383.77 356.59 376.75 351.25 C 369.73 345.91 362.88 333.69 352.00 334.00 C 341.12 334.31 331.64 344.85 333.67 355.33 C 335.71 365.80 346.00 371.56 352.25 378.75 C 358.50 385.95 371.89 393.56 363.75 401.75 C 355.61 409.94 350.89 415.17 342.75 422.75 C 334.62 430.33 329.99 440.61 336.70 450.30 C 343.40 459.99 354.83 460.82 364.00 454.00 Z"/>
</g>
<g fill="#737373" fill-opacity="1.00" stroke="None">
<path d="
M 115.00 354.00 
C 117.93 353.84 121.08 353.80 124.00 354.00
C 120.87 353.44 118.17 353.48 115.00 354.00 Z"/>
</g>
<g fill="#000000" fill-opacity="1.00" stroke="None">
<path d="
M 124.00 354.00 
C 121.08 353.80 117.93 353.84 115.00 354.00
C 85.54 355.60 70.21 392.38 86.25 415.75 C 102.29 439.13 137.37 438.23 152.75 414.75 C 168.12 391.27 152.86 355.96 124.00 354.00
M 125.00 365.00 
C 159.59 370.62 150.77 427.74 114.93 421.07 C 79.08 414.40 87.34 358.89 125.00 365.00 Z"/>
</g>
<g fill="#797979" fill-opacity="1.00" stroke="None">
<path d="
M 425.00 393.00 
C 427.85 387.57 435.95 384.03 439.75 378.75 C 443.55 373.47 450.07 369.29 454.00 364.00
C 449.79 368.83 443.06 372.92 439.25 378.25 C 435.43 383.58 427.60 386.98 425.00 393.00 Z"/>
</g>
<g fill="#71A1D9" fill-opacity="1.00" stroke="None">
<path d="
M 125.00 365.00 
C 87.34 358.89 79.08 414.40 114.93 421.07 C 150.77 427.74 159.59 370.62 125.00 365.00 Z"/>
</g>
<g fill="#808080" fill-opacity="1.00" stroke="None">
<path d="
M 181.00 399.00 
C 181.56 395.09 181.57 390.98 181.00 387.00
C 181.15 390.96 181.15 395.04 181.00 399.00 Z"/>
</g>
<g fill="#3D5775" fill-opacity="1.00" stroke="None">
<path d="
M 46.00 398.00 
C 46.00 394.67 45.93 391.33 46.00 388.00
C 45.62 391.17 45.69 394.80 46.00 398.00 Z"/>
</g>
<g fill="#797979" fill-opacity="1.00" stroke="None">
<path d="
M 364.00 454.00 
C 369.07 450.23 373.15 443.98 378.25 440.25 C 383.35 436.52 386.71 428.91 392.00 426.00
C 381.26 430.96 372.87 446.27 364.00 454.00 Z"/>
</g>
<g fill="#808080" fill-opacity="1.00" stroke="None">
<path d="
M 124.00 455.00 
C 121.02 455.11 117.98 455.06 115.00 455.00
C 117.95 455.36 120.96 455.43 124.00 455.00 Z"/>
</g>
</svg>