<svg xmlns="http://www.w3.org/2000/svg" xmlns:v="https://svgstorm.com"
viewBox = "0 0 512 512"
width="512"
height="512">
<g fill="None" fill-opacity="0.0" stroke="#000000" stroke-opacity="0.00" stroke-width="0.3"><path d="
M 0.00 512.00 
L 126.00 512.00
C 116.62 508.83 108.09 500.37 107.00 490.00
C 107.00 334.00 107.00 178.00 107.00 22.00
C 108.06 11.63 116.69 3.13 126.00 0.00
L 0.00 0.00
L 0.00 512.00 Z"/>
</g>
<g fill="None" fill-opacity="0.0" stroke="#231F20" stroke-opacity="1.00" stroke-width="0.3"><path d="
M 107.00 22.00 
C 108.67 176.93 108.67 335.14 107.00 490.00
C 108.09 500.37 116.62 508.83 126.00 512.00
L 342.00 512.00
C 354.91 508.56 368.56 503.54 379.00 494.00
C 381.54 490.70 384.69 487.44 388.00 485.00
C 397.94 473.20 403.65 457.61 405.00 442.00
C 403.33 303.07 403.33 160.86 405.00 22.00
C 403.75 11.60 395.33 3.30 386.00 0.00
L 126.00 0.00
C 116.69 3.13 108.06 11.63 107.00 22.00
M 157.00 17.00 
C 157.00 22.33 157.00 27.67 157.00 33.00
C 146.00 33.00 135.00 33.00 124.00 33.00
C 123.85 27.27 122.83 18.52 130.00 17.00
C 137.92 15.35 149.15 15.32 157.00 17.00
M 338.00 33.00 
C 283.33 33.00 228.67 33.00 174.00 33.00
C 171.74 28.25 173.62 21.51 173.00 16.00
C 228.33 16.00 283.67 16.00 339.00 16.00
C 338.35 21.50 340.32 28.33 338.00 33.00
M 382.00 17.00 
C 389.17 18.54 388.14 27.25 388.00 33.00
C 377.00 33.00 366.00 33.00 355.00 33.00
C 355.00 27.67 355.00 22.33 355.00 17.00
C 362.92 15.35 374.15 15.32 382.00 17.00
M 388.00 50.00 
C 389.67 178.60 389.67 310.47 388.00 439.00
C 388.30 467.02 364.02 493.52 336.00 495.00
C 268.40 496.67 197.53 496.67 130.00 495.00
C 126.76 494.62 124.36 491.02 124.00 488.00
C 122.33 343.07 122.33 194.86 124.00 50.00
C 210.93 48.33 301.14 48.33 388.00 50.00 Z"/>
</g>
<g fill="None" fill-opacity="0.0" stroke="#000000" stroke-opacity="0.00" stroke-width="0.3"><path d="
M 405.00 22.00 
C 405.00 162.00 405.00 302.00 405.00 442.00
C 403.65 457.61 397.94 473.20 388.00 485.00
C 385.46 488.30 382.31 491.56 379.00 494.00
C 368.56 503.54 354.91 508.56 342.00 512.00
L 512.00 512.00
L 512.00 0.00
L 386.00 0.00
C 395.33 3.30 403.75 11.60 405.00 22.00 Z"/>
</g>
<g fill="None" fill-opacity="0.0" stroke="#737172" stroke-opacity="1.00" stroke-width="0.3"><path d="
M 130.00 17.00 
C 139.00 17.00 148.00 17.00 157.00 17.00
C 149.15 15.32 137.92 15.35 130.00 17.00 Z"/>
</g>
<g fill="None" fill-opacity="0.0" stroke="#777576" stroke-opacity="1.00" stroke-width="0.3"><path d="
M 174.00 33.00 
C 174.00 27.67 174.00 22.33 174.00 17.00
C 228.67 17.00 283.33 17.00 338.00 17.00
C 338.00 22.33 338.00 27.67 338.00 33.00
C 340.32 28.33 338.35 21.50 339.00 16.00
C 283.67 16.00 228.33 16.00 173.00 16.00
C 173.62 21.51 171.74 28.25 174.00 33.00 Z"/>
</g>
<g fill="None" fill-opacity="0.0" stroke="#737172" stroke-opacity="1.00" stroke-width="0.3"><path d="
M 355.00 17.00 
C 364.00 17.00 373.00 17.00 382.00 17.00
C 374.15 15.32 362.92 15.35 355.00 17.00 Z"/>
</g>
<g fill="None" fill-opacity="0.0" stroke="#D0D2D3" stroke-opacity="1.00" stroke-width="0.3"><path d="
M 157.00 17.00 
C 148.00 17.00 139.00 17.00 130.00 17.00
C 122.83 18.52 123.85 27.27 124.00 33.00
C 135.00 33.00 146.00 33.00 157.00 33.00
C 157.00 27.67 157.00 22.33 157.00 17.00 Z"/>
</g>
<g fill="None" fill-opacity="0.0" stroke="#D1D3D4" stroke-opacity="1.00" stroke-width="0.3"><path d="
M 174.00 33.00 
C 228.67 33.00 283.33 33.00 338.00 33.00
C 338.00 27.67 338.00 22.33 338.00 17.00
C 283.33 17.00 228.67 17.00 174.00 17.00
C 174.00 22.33 174.00 27.67 174.00 33.00 Z"/>
</g>
<g fill="None" fill-opacity="0.0" stroke="#D0D2D3" stroke-opacity="1.00" stroke-width="0.3"><path d="
M 382.00 17.00 
C 373.00 17.00 364.00 17.00 355.00 17.00
C 355.00 22.33 355.00 27.67 355.00 33.00
C 366.00 33.00 377.00 33.00 388.00 33.00
C 388.14 27.25 389.17 18.54 382.00 17.00 Z"/>
</g>
<g fill="None" fill-opacity="0.0" stroke="#231F20" stroke-opacity="0.64" stroke-width="0.3"><path d="
M 107.00 490.00 
C 108.67 335.14 108.67 176.93 107.00 22.00
C 107.00 178.00 107.00 334.00 107.00 490.00 Z"/>
</g>
<g fill="None" fill-opacity="0.0" stroke="#231F20" stroke-opacity="0.64" stroke-width="0.3"><path d="
M 405.00 442.00 
C 405.00 302.00 405.00 162.00 405.00 22.00
C 403.33 160.86 403.33 303.07 405.00 442.00 Z"/>
</g>
<g fill="None" fill-opacity="0.0" stroke="#757374" stroke-opacity="1.00" stroke-width="0.3"><path d="
M 124.00 50.00 
C 212.00 50.00 300.00 50.00 388.00 50.00
C 301.14 48.33 210.93 48.33 124.00 50.00 Z"/>
</g>
<g fill="None" fill-opacity="0.0" stroke="#383536" stroke-opacity="1.00" stroke-width="0.3"><path d="
M 124.00 488.00 
C 124.00 342.00 124.00 196.00 124.00 50.00
C 122.33 194.86 122.33 343.07 124.00 488.00 Z"/>
</g>
<g fill="None" fill-opacity="0.0" stroke="#D0D2D3" stroke-opacity="1.00" stroke-width="0.3"><path d="
M 124.00 488.00 
C 124.36 491.02 126.76 494.62 130.00 495.00
C 198.67 495.00 267.33 495.00 336.00 495.00
C 364.02 493.52 388.30 467.02 388.00 439.00
C 388.00 309.33 388.00 179.67 388.00 50.00
C 300.00 50.00 212.00 50.00 124.00 50.00
C 124.00 196.00 124.00 342.00 124.00 488.00
M 373.00 58.00 
C 375.86 58.32 379.68 60.49 379.00 64.00
C 380.67 112.27 380.67 163.81 379.00 212.00
C 377.91 230.17 361.16 246.34 343.00 247.00
C 275.73 248.67 205.19 248.67 138.00 247.00
C 135.67 246.86 133.06 244.39 133.00 242.00
C 131.33 183.73 131.33 122.19 133.00 64.00
C 132.35 60.53 136.11 58.29 139.00 58.00
C 215.93 56.33 296.14 56.33 373.00 58.00
M 214.00 287.00 
C 216.31 295.09 214.35 305.16 215.00 314.00
C 225.18 316.29 241.88 308.46 247.00 320.00
C 248.66 331.26 248.67 345.81 247.00 357.00
C 247.65 360.47 243.89 362.71 241.00 363.00
C 233.24 365.31 223.51 363.35 215.00 364.00
C 214.34 372.50 216.33 382.33 214.00 390.00
C 214.65 393.47 210.89 395.71 208.00 396.00
C 197.07 397.66 182.86 397.67 172.00 396.00
C 159.44 391.94 167.13 374.20 165.00 364.00
C 156.50 363.34 146.67 365.33 139.00 363.00
C 125.66 357.58 134.62 337.67 132.00 326.00 C 129.80 307.32 153.81 315.87 165.00 314.00
C 167.09 303.10 158.24 279.85 176.00 281.00 C 188.00 283.74 207.14 274.79 214.00 287.00
M 379.00 317.00 
C 380.54 319.28 380.72 324.79 379.00 327.00
C 376.19 366.49 311.40 361.37 314.00 322.00 C 311.42 282.52 376.11 277.83 379.00 317.00
M 293.00 330.00 
C 316.48 332.66 331.10 363.42 315.75 382.75 C 301.91 402.62 269.35 399.48 259.23 377.77 C 247.61 355.43 267.95 326.84 293.00 330.00
M 218.00 413.00 
C 232.76 425.04 209.35 433.77 199.92 437.92 C 187.40 442.94 176.04 453.27 162.33 453.67 C 146.58 442.00 171.37 433.94 180.23 429.23 C 193.08 424.52 204.17 414.42 218.00 413.00
M 275.00 413.00 
C 291.24 424.53 267.78 433.05 258.31 437.31 C 245.79 442.51 234.44 451.67 221.00 454.00 C 204.33 443.49 227.88 433.16 237.23 429.23 C 250.04 424.42 261.18 414.59 275.00 413.00
M 343.00 414.00 
C 352.33 422.51 361.55 431.71 370.00 441.00
C 374.77 448.02 366.33 457.54 359.00 453.00
C 349.67 444.49 340.45 435.29 332.00 426.00
C 327.28 418.82 335.59 409.69 343.00 414.00
M 327.00 431.00 
C 336.33 439.51 345.55 448.71 354.00 458.00
C 358.33 465.39 349.15 473.73 342.00 469.00
C 332.67 460.49 323.45 451.29 315.00 442.00
C 310.45 434.64 320.01 426.25 327.00 431.00
M 310.00 447.00 
C 319.33 455.51 328.55 464.71 337.00 474.00
C 341.77 481.02 333.33 490.54 326.00 486.00
C 316.34 477.16 306.78 467.62 298.00 458.00
C 295.48 450.47 302.90 443.16 310.00 447.00 Z"/>
</g>
<g fill="None" fill-opacity="0.0" stroke="#383536" stroke-opacity="1.00" stroke-width="0.3"><path d="
M 388.00 439.00 
C 389.67 310.47 389.67 178.60 388.00 50.00
C 388.00 179.67 388.00 309.33 388.00 439.00 Z"/>
</g>
<g fill="None" fill-opacity="0.0" stroke="#AEAFB0" stroke-opacity="1.00" stroke-width="0.3"><path d="
M 139.00 58.00 
C 217.00 58.00 295.00 58.00 373.00 58.00
C 296.14 56.33 215.93 56.33 139.00 58.00 Z"/>
</g>
<g fill="None" fill-opacity="0.0" stroke="#231F20" stroke-opacity="1.00" stroke-width="0.3"><path d="
M 133.00 64.00 
C 133.00 123.33 133.00 182.67 133.00 242.00
C 133.06 244.39 135.67 246.86 138.00 247.00
C 206.33 247.00 274.67 247.00 343.00 247.00
C 361.16 246.34 377.91 230.17 379.00 212.00
C 379.00 162.67 379.00 113.33 379.00 64.00
C 379.68 60.49 375.86 58.32 373.00 58.00
C 295.00 58.00 217.00 58.00 139.00 58.00
C 136.11 58.29 132.35 60.53 133.00 64.00
M 363.00 209.00 
C 362.42 220.07 352.09 230.44 341.00 231.00
C 278.07 232.67 211.86 232.67 149.00 231.00
C 147.33 179.73 147.33 125.20 149.00 74.00
C 220.33 74.00 291.67 74.00 363.00 74.00
C 364.67 117.93 364.67 165.14 363.00 209.00 Z"/>
</g>
<g fill="None" fill-opacity="0.0" stroke="#393637" stroke-opacity="1.00" stroke-width="0.3"><path d="
M 133.00 242.00 
C 133.00 182.67 133.00 123.33 133.00 64.00
C 131.33 122.19 131.33 183.73 133.00 242.00 Z"/>
</g>
<g fill="None" fill-opacity="0.0" stroke="#3A3738" stroke-opacity="1.00" stroke-width="0.3"><path d="
M 379.00 212.00 
C 380.67 163.81 380.67 112.27 379.00 64.00
C 379.00 113.33 379.00 162.67 379.00 212.00 Z"/>
</g>
<g fill="None" fill-opacity="0.0" stroke="#524F51" stroke-opacity="1.00" stroke-width="0.3"><path d="
M 149.00 231.00 
C 149.00 179.00 149.00 127.00 149.00 75.00
C 149.00 74.50 149.00 74.00 149.00 74.00
C 147.33 125.20 147.33 179.73 149.00 231.00 Z"/>
</g>
<g fill="None" fill-opacity="0.0" stroke="#7B7B7E" stroke-opacity="1.00" stroke-width="0.3"><path d="
M 149.00 75.00 
C 220.33 75.00 291.67 75.00 363.00 75.00
C 363.00 74.50 363.00 74.00 363.00 74.00
C 291.67 74.00 220.33 74.00 149.00 74.00
C 149.00 74.00 149.00 74.50 149.00 75.00 Z"/>
</g>
<g fill="None" fill-opacity="0.0" stroke="#524F51" stroke-opacity="1.00" stroke-width="0.3"><path d="
M 363.00 75.00 
C 363.00 119.67 363.00 164.33 363.00 209.00
C 364.67 165.14 364.67 117.93 363.00 74.00
C 363.00 74.00 363.00 74.50 363.00 75.00 Z"/>
</g>
<g fill="None" fill-opacity="0.0" stroke="#A6A8AB" stroke-opacity="1.00" stroke-width="0.3"><path d="
M 149.00 231.00 
C 213.00 231.00 277.00 231.00 341.00 231.00
C 352.09 230.44 362.42 220.07 363.00 209.00
C 363.00 164.33 363.00 119.67 363.00 75.00
C 291.67 75.00 220.33 75.00 149.00 75.00
C 149.00 127.00 149.00 179.00 149.00 231.00
M 340.00 83.00 
C 342.50 83.33 346.02 84.99 346.00 88.00
C 347.67 129.93 347.67 175.14 346.00 217.00
C 337.72 229.36 317.27 220.15 304.00 223.00 C 272.00 223.00 240.00 223.00 208.00 223.00 C 194.73 220.15 174.28 229.37 166.00 217.00
C 164.33 175.07 164.33 129.86 166.00 88.00
C 166.05 85.02 169.44 83.30 172.00 83.00
C 226.93 81.33 285.14 81.33 340.00 83.00 Z"/>
</g>
<g fill="None" fill-opacity="0.0" stroke="#727174" stroke-opacity="1.00" stroke-width="0.3"><path d="
M 172.00 83.00 
C 228.00 83.00 284.00 83.00 340.00 83.00
C 285.14 81.33 226.93 81.33 172.00 83.00 Z"/>
</g>
<g fill="None" fill-opacity="0.0" stroke="#231F20" stroke-opacity="1.00" stroke-width="0.3"><path d="
M 166.00 88.00 
C 166.00 131.00 166.00 174.00 166.00 217.00
C 174.28 229.37 194.73 220.15 208.00 223.00 C 240.00 223.00 272.00 223.00 304.00 223.00 C 317.27 220.15 337.72 229.36 346.00 217.00
C 346.00 174.00 346.00 131.00 346.00 88.00
C 346.02 84.99 342.50 83.33 340.00 83.00
C 284.00 83.00 228.00 83.00 172.00 83.00
C 169.44 83.30 166.05 85.02 166.00 88.00
M 330.00 207.00 
C 280.67 207.00 231.33 207.00 182.00 207.00
C 180.33 172.07 180.33 133.86 182.00 99.00
C 231.33 99.00 280.67 99.00 330.00 99.00
C 331.67 133.93 331.67 172.14 330.00 207.00 Z"/>
</g>
<g fill="None" fill-opacity="0.0" stroke="#383537" stroke-opacity="1.00" stroke-width="0.3"><path d="
M 166.00 217.00 
C 166.00 174.00 166.00 131.00 166.00 88.00
C 164.33 129.86 164.33 175.07 166.00 217.00 Z"/>
</g>
<g fill="None" fill-opacity="0.0" stroke="#383537" stroke-opacity="1.00" stroke-width="0.3"><path d="
M 346.00 217.00 
C 347.67 175.14 347.67 129.93 346.00 88.00
C 346.00 131.00 346.00 174.00 346.00 217.00 Z"/>
</g>
<g fill="None" fill-opacity="0.0" stroke="#465C32" stroke-opacity="1.00" stroke-width="0.3"><path d="
M 182.00 207.00 
C 181.96 207.00 182.00 206.00 182.00 206.00
C 182.00 170.33 182.00 134.67 182.00 99.00
C 180.33 133.86 180.33 172.07 182.00 207.00 Z"/>
</g>
<g fill="None" fill-opacity="0.0" stroke="#90DB59" stroke-opacity="1.00" stroke-width="0.3"><path d="
M 182.00 206.00 
C 231.33 206.00 280.67 206.00 330.00 206.00
C 330.00 170.33 330.00 134.67 330.00 99.00
C 280.67 99.00 231.33 99.00 182.00 99.00
C 182.00 134.67 182.00 170.33 182.00 206.00 Z"/>
</g>
<g fill="None" fill-opacity="0.0" stroke="#465C32" stroke-opacity="1.00" stroke-width="0.3"><path d="
M 330.00 206.00 
C 330.00 206.50 330.00 207.00 330.00 207.00
C 331.67 172.14 331.67 133.93 330.00 99.00
C 330.00 134.67 330.00 170.33 330.00 206.00 Z"/>
</g>
<g fill="None" fill-opacity="0.0" stroke="#57783B" stroke-opacity="1.00" stroke-width="0.3"><path d="
M 182.00 207.00 
C 231.33 207.00 280.67 207.00 330.00 207.00
C 330.00 207.00 330.00 206.50 330.00 206.00
C 280.67 206.00 231.33 206.00 182.00 206.00
C 182.00 206.00 181.96 207.00 182.00 207.00 Z"/>
</g>
<g fill="None" fill-opacity="0.0" stroke="#3C3A3B" stroke-opacity="1.00" stroke-width="0.3"><path d="
M 341.00 231.00 
C 277.00 231.00 213.00 231.00 149.00 231.00
C 211.86 232.67 278.07 232.67 341.00 231.00 Z"/>
</g>
<g fill="None" fill-opacity="0.0" stroke="#524F50" stroke-opacity="1.00" stroke-width="0.3"><path d="
M 343.00 247.00 
C 274.67 247.00 206.33 247.00 138.00 247.00
C 205.19 248.67 275.73 248.67 343.00 247.00 Z"/>
</g>
<g fill="None" fill-opacity="0.0" stroke="#231F20" stroke-opacity="1.00" stroke-width="0.3"><path d="
M 139.00 363.00 
C 147.50 363.66 157.33 361.67 165.00 364.00
C 167.13 374.20 159.44 391.94 172.00 396.00
C 184.00 396.00 196.00 396.00 208.00 396.00
C 210.89 395.71 214.65 393.47 214.00 390.00
C 214.66 381.17 212.67 371.01 215.00 363.00
C 223.67 363.00 232.33 363.00 241.00 363.00
C 243.89 362.71 247.65 360.47 247.00 357.00
C 247.00 344.67 247.00 332.33 247.00 320.00
C 241.88 308.46 225.18 316.29 215.00 314.00
C 212.69 305.91 214.65 295.84 214.00 287.00
C 207.14 274.79 188.00 283.74 176.00 281.00 C 158.24 279.85 167.09 303.10 165.00 314.00
C 153.81 315.87 129.80 307.32 132.00 326.00 C 134.62 337.67 125.66 357.58 139.00 363.00
M 198.00 297.00 
C 199.10 307.12 195.57 318.72 200.26 327.74 C 209.10 332.64 220.94 328.76 231.00 330.00
C 231.00 335.67 231.00 341.33 231.00 347.00
C 221.18 348.57 208.87 343.70 200.75 349.75 C 194.92 358.08 199.42 370.14 198.00 380.00
C 192.67 380.00 187.33 380.00 182.00 380.00
C 180.57 370.12 185.10 358.13 179.25 349.75 C 171.18 343.71 158.80 348.56 149.00 347.00
C 149.00 341.33 149.00 335.67 149.00 330.00
C 158.82 328.43 171.13 333.30 179.25 327.25 C 185.08 318.92 180.58 306.86 182.00 297.00
C 187.33 297.00 192.67 297.00 198.00 297.00 Z"/>
</g>
<g fill="None" fill-opacity="0.0" stroke="#565455" stroke-opacity="1.00" stroke-width="0.3"><path d="
M 215.00 314.00 
C 214.35 305.16 216.31 295.09 214.00 287.00
C 214.65 295.84 212.69 305.91 215.00 314.00 Z"/>
</g>
<g fill="None" fill-opacity="0.0" stroke="#252021" stroke-opacity="1.00" stroke-width="0.3"><path d="
M 379.00 327.00 
C 379.00 323.67 379.00 320.33 379.00 317.00
C 376.11 277.83 311.42 282.52 314.00 322.00 C 311.40 361.37 376.19 366.49 379.00 327.00
M 353.00 306.00 
C 372.30 313.03 361.11 346.45 341.31 337.69 C 320.73 330.61 332.17 299.33 353.00 306.00 Z"/>
</g>
<g fill="None" fill-opacity="0.0" stroke="#403F41" stroke-opacity="1.00" stroke-width="0.3"><path d="
M 198.00 297.00 
C 192.67 297.00 187.33 297.00 182.00 297.00
C 180.58 306.86 185.08 318.92 179.25 327.25 C 171.13 333.30 158.82 328.43 149.00 330.00
C 149.00 335.67 149.00 341.33 149.00 347.00
C 158.80 348.56 171.18 343.71 179.25 349.75 C 185.10 358.13 180.57 370.12 182.00 380.00
C 187.33 380.00 192.67 380.00 198.00 380.00
C 199.42 370.14 194.92 358.08 200.75 349.75 C 208.87 343.70 221.18 348.57 231.00 347.00
C 231.00 341.33 231.00 335.67 231.00 330.00
C 220.94 328.76 209.10 332.64 200.26 327.74 C 195.57 318.72 199.10 307.12 198.00 297.00 Z"/>
</g>
<g fill="None" fill-opacity="0.0" stroke="#D30227" stroke-opacity="1.00" stroke-width="0.3"><path d="
M 353.00 306.00 
C 332.17 299.33 320.73 330.61 341.31 337.69 C 361.11 346.45 372.30 313.03 353.00 306.00 Z"/>
</g>
<g fill="None" fill-opacity="0.0" stroke="#545253" stroke-opacity="1.00" stroke-width="0.3"><path d="
M 379.00 327.00 
C 380.72 324.79 380.54 319.28 379.00 317.00
C 379.00 320.33 379.00 323.67 379.00 327.00 Z"/>
</g>
<g fill="None" fill-opacity="0.0" stroke="#514F50" stroke-opacity="1.00" stroke-width="0.3"><path d="
M 247.00 357.00 
C 248.67 345.81 248.66 331.26 247.00 320.00
C 247.00 332.33 247.00 344.67 247.00 357.00 Z"/>
</g>
<g fill="None" fill-opacity="0.0" stroke="#252021" stroke-opacity="1.00" stroke-width="0.3"><path d="
M 293.00 330.00 
C 267.95 326.84 247.61 355.43 259.23 377.77 C 269.35 399.48 301.91 402.62 315.75 382.75 C 331.10 363.42 316.48 332.66 293.00 330.00
M 293.00 347.00 
C 313.01 351.66 306.74 383.62 286.33 379.67 C 264.91 376.98 271.41 341.66 293.00 347.00 Z"/>
</g>
<g fill="None" fill-opacity="0.0" stroke="#D40127" stroke-opacity="1.00" stroke-width="0.3"><path d="
M 293.00 347.00 
C 271.41 341.66 264.91 376.98 286.33 379.67 C 306.74 383.62 313.01 351.66 293.00 347.00 Z"/>
</g>
<g fill="None" fill-opacity="0.0" stroke="#979798" stroke-opacity="1.00" stroke-width="0.3"><path d="
M 165.00 364.00 
C 157.33 361.67 147.50 363.66 139.00 363.00
C 146.67 365.33 156.50 363.34 165.00 364.00 Z"/>
</g>
<g fill="None" fill-opacity="0.0" stroke="#565355" stroke-opacity="1.00" stroke-width="0.3"><path d="
M 214.00 390.00 
C 216.33 382.33 214.34 372.50 215.00 364.00
C 215.00 363.50 215.00 363.00 215.00 363.00
C 212.67 371.01 214.66 381.17 214.00 390.00 Z"/>
</g>
<g fill="None" fill-opacity="0.0" stroke="#979798" stroke-opacity="1.00" stroke-width="0.3"><path d="
M 215.00 364.00 
C 223.51 363.35 233.24 365.31 241.00 363.00
C 232.33 363.00 223.67 363.00 215.00 363.00
C 215.00 363.00 215.00 363.50 215.00 364.00 Z"/>
</g>
<g fill="None" fill-opacity="0.0" stroke="#8C8C8D" stroke-opacity="1.00" stroke-width="0.3"><path d="
M 208.00 396.00 
C 196.00 396.00 184.00 396.00 172.00 396.00
C 182.86 397.67 197.07 397.66 208.00 396.00 Z"/>
</g>
<g fill="None" fill-opacity="0.0" stroke="#252223" stroke-opacity="1.00" stroke-width="0.3"><path d="
M 218.00 413.00 
C 204.17 414.42 193.08 424.52 180.23 429.23 C 171.37 433.94 146.58 442.00 162.33 453.67 C 176.04 453.27 187.40 442.94 199.92 437.92 C 209.35 433.77 232.76 425.04 218.00 413.00 Z"/>
</g>
<g fill="None" fill-opacity="0.0" stroke="#252122" stroke-opacity="1.00" stroke-width="0.3"><path d="
M 275.00 413.00 
C 261.18 414.59 250.04 424.42 237.23 429.23 C 227.88 433.16 204.33 443.49 221.00 454.00 C 234.44 451.67 245.79 442.51 258.31 437.31 C 267.78 433.05 291.24 424.53 275.00 413.00 Z"/>
</g>
<g fill="None" fill-opacity="0.0" stroke="#231F20" stroke-opacity="1.00" stroke-width="0.3"><path d="
M 332.00 426.00 
C 341.33 434.51 350.55 443.71 359.00 453.00
C 366.33 457.54 374.77 448.02 370.00 441.00
C 360.67 432.49 351.45 423.29 343.00 414.00
C 335.59 409.69 327.28 418.82 332.00 426.00 Z"/>
</g>
<g fill="None" fill-opacity="0.0" stroke="#696869" stroke-opacity="1.00" stroke-width="0.3"><path d="
M 370.00 441.00 
C 361.55 431.71 352.33 422.51 343.00 414.00
C 351.45 423.29 360.67 432.49 370.00 441.00 Z"/>
</g>
<g fill="None" fill-opacity="0.0" stroke="#575555" stroke-opacity="1.00" stroke-width="0.3"><path d="
M 359.00 453.00 
C 350.55 443.71 341.33 434.51 332.00 426.00
C 340.45 435.29 349.67 444.49 359.00 453.00 Z"/>
</g>
<g fill="None" fill-opacity="0.0" stroke="#231F20" stroke-opacity="1.00" stroke-width="0.3"><path d="
M 315.00 442.00 
C 324.33 450.51 333.55 459.71 342.00 469.00
C 349.15 473.73 358.33 465.39 354.00 458.00
C 344.67 449.49 335.45 440.29 327.00 431.00
C 320.01 426.25 310.45 434.64 315.00 442.00 Z"/>
</g>
<g fill="None" fill-opacity="0.0" stroke="#716F70" stroke-opacity="1.00" stroke-width="0.3"><path d="
M 354.00 458.00 
C 345.55 448.71 336.33 439.51 327.00 431.00
C 335.45 440.29 344.67 449.49 354.00 458.00 Z"/>
</g>
<g fill="None" fill-opacity="0.0" stroke="#504E4F" stroke-opacity="1.00" stroke-width="0.3"><path d="
M 342.00 469.00 
C 333.55 459.71 324.33 450.51 315.00 442.00
C 323.45 451.29 332.67 460.49 342.00 469.00 Z"/>
</g>
<g fill="None" fill-opacity="0.0" stroke="#231F20" stroke-opacity="1.00" stroke-width="0.3"><path d="
M 298.00 458.00 
C 307.66 466.84 317.22 476.38 326.00 486.00
C 333.33 490.54 341.77 481.02 337.00 474.00
C 327.67 465.49 318.45 456.29 310.00 447.00
C 302.90 443.16 295.48 450.47 298.00 458.00 Z"/>
</g>
<g fill="None" fill-opacity="0.0" stroke="#747274" stroke-opacity="1.00" stroke-width="0.3"><path d="
M 337.00 474.00 
C 328.55 464.71 319.33 455.51 310.00 447.00
C 318.45 456.29 327.67 465.49 337.00 474.00 Z"/>
</g>
<g fill="None" fill-opacity="0.0" stroke="#504E4F" stroke-opacity="1.00" stroke-width="0.3"><path d="
M 326.00 486.00 
C 317.22 476.38 307.66 466.84 298.00 458.00
C 306.78 467.62 316.34 477.16 326.00 486.00 Z"/>
</g>
<g fill="None" fill-opacity="0.0" stroke="#231E20" stroke-opacity="0.41" stroke-width="0.3"><path d="
M 379.00 494.00 
C 382.31 491.56 385.46 488.30 388.00 485.00
C 384.69 487.44 381.54 490.70 379.00 494.00 Z"/>
</g>
<g fill="None" fill-opacity="0.0" stroke="#747273" stroke-opacity="1.00" stroke-width="0.3"><path d="
M 336.00 495.00 
C 267.33 495.00 198.67 495.00 130.00 495.00
C 197.53 496.67 268.40 496.67 336.00 495.00 Z"/>
</g>
<g fill="#000000" fill-opacity="0.00" stroke="None">
<path d="
M 0.00 512.00 
L 126.00 512.00
C 116.62 508.83 108.09 500.37 107.00 490.00
C 107.00 334.00 107.00 178.00 107.00 22.00
C 108.06 11.63 116.69 3.13 126.00 0.00
L 0.00 0.00
L 0.00 512.00 Z"/>
</g>
<g fill="#231F20" fill-opacity="1.00" stroke="None">
<path d="
M 107.00 22.00 
C 108.67 176.93 108.67 335.14 107.00 490.00
C 108.09 500.37 116.62 508.83 126.00 512.00
L 342.00 512.00
C 354.91 508.56 368.56 503.54 379.00 494.00
C 381.54 490.70 384.69 487.44 388.00 485.00
C 397.94 473.20 403.65 457.61 405.00 442.00
C 403.33 303.07 403.33 160.86 405.00 22.00
C 403.75 11.60 395.33 3.30 386.00 0.00
L 126.00 0.00
C 116.69 3.13 108.06 11.63 107.00 22.00
M 157.00 17.00 
C 157.00 22.33 157.00 27.67 157.00 33.00
C 146.00 33.00 135.00 33.00 124.00 33.00
C 123.85 27.27 122.83 18.52 130.00 17.00
C 137.92 15.35 149.15 15.32 157.00 17.00
M 338.00 33.00 
C 283.33 33.00 228.67 33.00 174.00 33.00
C 171.74 28.25 173.62 21.51 173.00 16.00
C 228.33 16.00 283.67 16.00 339.00 16.00
C 338.35 21.50 340.32 28.33 338.00 33.00
M 382.00 17.00 
C 389.17 18.54 388.14 27.25 388.00 33.00
C 377.00 33.00 366.00 33.00 355.00 33.00
C 355.00 27.67 355.00 22.33 355.00 17.00
C 362.92 15.35 374.15 15.32 382.00 17.00
M 388.00 50.00 
C 389.67 178.60 389.67 310.47 388.00 439.00
C 388.30 467.02 364.02 493.52 336.00 495.00
C 268.40 496.67 197.53 496.67 130.00 495.00
C 126.76 494.62 124.36 491.02 124.00 488.00
C 122.33 343.07 122.33 194.86 124.00 50.00
C 210.93 48.33 301.14 48.33 388.00 50.00 Z"/>
</g>
<g fill="#000000" fill-opacity="0.00" stroke="None">
<path d="
M 405.00 22.00 
C 405.00 162.00 405.00 302.00 405.00 442.00
C 403.65 457.61 397.94 473.20 388.00 485.00
C 385.46 488.30 382.31 491.56 379.00 494.00
C 368.56 503.54 354.91 508.56 342.00 512.00
L 512.00 512.00
L 512.00 0.00
L 386.00 0.00
C 395.33 3.30 403.75 11.60 405.00 22.00 Z"/>
</g>
<g fill="#737172" fill-opacity="1.00" stroke="None">
<path d="
M 130.00 17.00 
C 139.00 17.00 148.00 17.00 157.00 17.00
C 149.15 15.32 137.92 15.35 130.00 17.00 Z"/>
</g>
<g fill="#777576" fill-opacity="1.00" stroke="None">
<path d="
M 174.00 33.00 
C 174.00 27.67 174.00 22.33 174.00 17.00
C 228.67 17.00 283.33 17.00 338.00 17.00
C 338.00 22.33 338.00 27.67 338.00 33.00
C 340.32 28.33 338.35 21.50 339.00 16.00
C 283.67 16.00 228.33 16.00 173.00 16.00
C 173.62 21.51 171.74 28.25 174.00 33.00 Z"/>
</g>
<g fill="#737172" fill-opacity="1.00" stroke="None">
<path d="
M 355.00 17.00 
C 364.00 17.00 373.00 17.00 382.00 17.00
C 374.15 15.32 362.92 15.35 355.00 17.00 Z"/>
</g>
<g fill="#D0D2D3" fill-opacity="1.00" stroke="None">
<path d="
M 157.00 17.00 
C 148.00 17.00 139.00 17.00 130.00 17.00
C 122.83 18.52 123.85 27.27 124.00 33.00
C 135.00 33.00 146.00 33.00 157.00 33.00
C 157.00 27.67 157.00 22.33 157.00 17.00 Z"/>
</g>
<g fill="#D1D3D4" fill-opacity="1.00" stroke="None">
<path d="
M 174.00 33.00 
C 228.67 33.00 283.33 33.00 338.00 33.00
C 338.00 27.67 338.00 22.33 338.00 17.00
C 283.33 17.00 228.67 17.00 174.00 17.00
C 174.00 22.33 174.00 27.67 174.00 33.00 Z"/>
</g>
<g fill="#D0D2D3" fill-opacity="1.00" stroke="None">
<path d="
M 382.00 17.00 
C 373.00 17.00 364.00 17.00 355.00 17.00
C 355.00 22.33 355.00 27.67 355.00 33.00
C 366.00 33.00 377.00 33.00 388.00 33.00
C 388.14 27.25 389.17 18.54 382.00 17.00 Z"/>
</g>
<g fill="#231F20" fill-opacity="0.64" stroke="None">
<path d="
M 107.00 490.00 
C 108.67 335.14 108.67 176.93 107.00 22.00
C 107.00 178.00 107.00 334.00 107.00 490.00 Z"/>
</g>
<g fill="#231F20" fill-opacity="0.64" stroke="None">
<path d="
M 405.00 442.00 
C 405.00 302.00 405.00 162.00 405.00 22.00
C 403.33 160.86 403.33 303.07 405.00 442.00 Z"/>
</g>
<g fill="#757374" fill-opacity="1.00" stroke="None">
<path d="
M 124.00 50.00 
C 212.00 50.00 300.00 50.00 388.00 50.00
C 301.14 48.33 210.93 48.33 124.00 50.00 Z"/>
</g>
<g fill="#383536" fill-opacity="1.00" stroke="None">
<path d="
M 124.00 488.00 
C 124.00 342.00 124.00 196.00 124.00 50.00
C 122.33 194.86 122.33 343.07 124.00 488.00 Z"/>
</g>
<g fill="#D0D2D3" fill-opacity="1.00" stroke="None">
<path d="
M 124.00 488.00 
C 124.36 491.02 126.76 494.62 130.00 495.00
C 198.67 495.00 267.33 495.00 336.00 495.00
C 364.02 493.52 388.30 467.02 388.00 439.00
C 388.00 309.33 388.00 179.67 388.00 50.00
C 300.00 50.00 212.00 50.00 124.00 50.00
C 124.00 196.00 124.00 342.00 124.00 488.00
M 373.00 58.00 
C 375.86 58.32 379.68 60.49 379.00 64.00
C 380.67 112.27 380.67 163.81 379.00 212.00
C 377.91 230.17 361.16 246.34 343.00 247.00
C 275.73 248.67 205.19 248.67 138.00 247.00
C 135.67 246.86 133.06 244.39 133.00 242.00
C 131.33 183.73 131.33 122.19 133.00 64.00
C 132.35 60.53 136.11 58.29 139.00 58.00
C 215.93 56.33 296.14 56.33 373.00 58.00
M 214.00 287.00 
C 216.31 295.09 214.35 305.16 215.00 314.00
C 225.18 316.29 241.88 308.46 247.00 320.00
C 248.66 331.26 248.67 345.81 247.00 357.00
C 247.65 360.47 243.89 362.71 241.00 363.00
C 233.24 365.31 223.51 363.35 215.00 364.00
C 214.34 372.50 216.33 382.33 214.00 390.00
C 214.65 393.47 210.89 395.71 208.00 396.00
C 197.07 397.66 182.86 397.67 172.00 396.00
C 159.44 391.94 167.13 374.20 165.00 364.00
C 156.50 363.34 146.67 365.33 139.00 363.00
C 125.66 357.58 134.62 337.67 132.00 326.00 C 129.80 307.32 153.81 315.87 165.00 314.00
C 167.09 303.10 158.24 279.85 176.00 281.00 C 188.00 283.74 207.14 274.79 214.00 287.00
M 379.00 317.00 
C 380.54 319.28 380.72 324.79 379.00 327.00
C 376.19 366.49 311.40 361.37 314.00 322.00 C 311.42 282.52 376.11 277.83 379.00 317.00
M 293.00 330.00 
C 316.48 332.66 331.10 363.42 315.75 382.75 C 301.91 402.62 269.35 399.48 259.23 377.77 C 247.61 355.43 267.95 326.84 293.00 330.00
M 218.00 413.00 
C 232.76 425.04 209.35 433.77 199.92 437.92 C 187.40 442.94 176.04 453.27 162.33 453.67 C 146.58 442.00 171.37 433.94 180.23 429.23 C 193.08 424.52 204.17 414.42 218.00 413.00
M 275.00 413.00 
C 291.24 424.53 267.78 433.05 258.31 437.31 C 245.79 442.51 234.44 451.67 221.00 454.00 C 204.33 443.49 227.88 433.16 237.23 429.23 C 250.04 424.42 261.18 414.59 275.00 413.00
M 343.00 414.00 
C 352.33 422.51 361.55 431.71 370.00 441.00
C 374.77 448.02 366.33 457.54 359.00 453.00
C 349.67 444.49 340.45 435.29 332.00 426.00
C 327.28 418.82 335.59 409.69 343.00 414.00
M 327.00 431.00 
C 336.33 439.51 345.55 448.71 354.00 458.00
C 358.33 465.39 349.15 473.73 342.00 469.00
C 332.67 460.49 323.45 451.29 315.00 442.00
C 310.45 434.64 320.01 426.25 327.00 431.00
M 310.00 447.00 
C 319.33 455.51 328.55 464.71 337.00 474.00
C 341.77 481.02 333.33 490.54 326.00 486.00
C 316.34 477.16 306.78 467.62 298.00 458.00
C 295.48 450.47 302.90 443.16 310.00 447.00 Z"/>
</g>
<g fill="#383536" fill-opacity="1.00" stroke="None">
<path d="
M 388.00 439.00 
C 389.67 310.47 389.67 178.60 388.00 50.00
C 388.00 179.67 388.00 309.33 388.00 439.00 Z"/>
</g>
<g fill="#AEAFB0" fill-opacity="1.00" stroke="None">
<path d="
M 139.00 58.00 
C 217.00 58.00 295.00 58.00 373.00 58.00
C 296.14 56.33 215.93 56.33 139.00 58.00 Z"/>
</g>
<g fill="#231F20" fill-opacity="1.00" stroke="None">
<path d="
M 133.00 64.00 
C 133.00 123.33 133.00 182.67 133.00 242.00
C 133.06 244.39 135.67 246.86 138.00 247.00
C 206.33 247.00 274.67 247.00 343.00 247.00
C 361.16 246.34 377.91 230.17 379.00 212.00
C 379.00 162.67 379.00 113.33 379.00 64.00
C 379.68 60.49 375.86 58.32 373.00 58.00
C 295.00 58.00 217.00 58.00 139.00 58.00
C 136.11 58.29 132.35 60.53 133.00 64.00
M 363.00 209.00 
C 362.42 220.07 352.09 230.44 341.00 231.00
C 278.07 232.67 211.86 232.67 149.00 231.00
C 147.33 179.73 147.33 125.20 149.00 74.00
C 220.33 74.00 291.67 74.00 363.00 74.00
C 364.67 117.93 364.67 165.14 363.00 209.00 Z"/>
</g>
<g fill="#393637" fill-opacity="1.00" stroke="None">
<path d="
M 133.00 242.00 
C 133.00 182.67 133.00 123.33 133.00 64.00
C 131.33 122.19 131.33 183.73 133.00 242.00 Z"/>
</g>
<g fill="#3A3738" fill-opacity="1.00" stroke="None">
<path d="
M 379.00 212.00 
C 380.67 163.81 380.67 112.27 379.00 64.00
C 379.00 113.33 379.00 162.67 379.00 212.00 Z"/>
</g>
<g fill="#524F51" fill-opacity="1.00" stroke="None">
<path d="
M 149.00 231.00 
C 149.00 179.00 149.00 127.00 149.00 75.00
C 149.00 74.50 149.00 74.00 149.00 74.00
C 147.33 125.20 147.33 179.73 149.00 231.00 Z"/>
</g>
<g fill="#7B7B7E" fill-opacity="1.00" stroke="None">
<path d="
M 149.00 75.00 
C 220.33 75.00 291.67 75.00 363.00 75.00
C 363.00 74.50 363.00 74.00 363.00 74.00
C 291.67 74.00 220.33 74.00 149.00 74.00
C 149.00 74.00 149.00 74.50 149.00 75.00 Z"/>
</g>
<g fill="#524F51" fill-opacity="1.00" stroke="None">
<path d="
M 363.00 75.00 
C 363.00 119.67 363.00 164.33 363.00 209.00
C 364.67 165.14 364.67 117.93 363.00 74.00
C 363.00 74.00 363.00 74.50 363.00 75.00 Z"/>
</g>
<g fill="#A6A8AB" fill-opacity="1.00" stroke="None">
<path d="
M 149.00 231.00 
C 213.00 231.00 277.00 231.00 341.00 231.00
C 352.09 230.44 362.42 220.07 363.00 209.00
C 363.00 164.33 363.00 119.67 363.00 75.00
C 291.67 75.00 220.33 75.00 149.00 75.00
C 149.00 127.00 149.00 179.00 149.00 231.00
M 340.00 83.00 
C 342.50 83.33 346.02 84.99 346.00 88.00
C 347.67 129.93 347.67 175.14 346.00 217.00
C 337.72 229.36 317.27 220.15 304.00 223.00 C 272.00 223.00 240.00 223.00 208.00 223.00 C 194.73 220.15 174.28 229.37 166.00 217.00
C 164.33 175.07 164.33 129.86 166.00 88.00
C 166.05 85.02 169.44 83.30 172.00 83.00
C 226.93 81.33 285.14 81.33 340.00 83.00 Z"/>
</g>
<g fill="#727174" fill-opacity="1.00" stroke="None">
<path d="
M 172.00 83.00 
C 228.00 83.00 284.00 83.00 340.00 83.00
C 285.14 81.33 226.93 81.33 172.00 83.00 Z"/>
</g>
<g fill="#231F20" fill-opacity="1.00" stroke="None">
<path d="
M 166.00 88.00 
C 166.00 131.00 166.00 174.00 166.00 217.00
C 174.28 229.37 194.73 220.15 208.00 223.00 C 240.00 223.00 272.00 223.00 304.00 223.00 C 317.27 220.15 337.72 229.36 346.00 217.00
C 346.00 174.00 346.00 131.00 346.00 88.00
C 346.02 84.99 342.50 83.33 340.00 83.00
C 284.00 83.00 228.00 83.00 172.00 83.00
C 169.44 83.30 166.05 85.02 166.00 88.00
M 330.00 207.00 
C 280.67 207.00 231.33 207.00 182.00 207.00
C 180.33 172.07 180.33 133.86 182.00 99.00
C 231.33 99.00 280.67 99.00 330.00 99.00
C 331.67 133.93 331.67 172.14 330.00 207.00 Z"/>
</g>
<g fill="#383537" fill-opacity="1.00" stroke="None">
<path d="
M 166.00 217.00 
C 166.00 174.00 166.00 131.00 166.00 88.00
C 164.33 129.86 164.33 175.07 166.00 217.00 Z"/>
</g>
<g fill="#383537" fill-opacity="1.00" stroke="None">
<path d="
M 346.00 217.00 
C 347.67 175.14 347.67 129.93 346.00 88.00
C 346.00 131.00 346.00 174.00 346.00 217.00 Z"/>
</g>
<g fill="#465C32" fill-opacity="1.00" stroke="None">
<path d="
M 182.00 207.00 
C 181.96 207.00 182.00 206.00 182.00 206.00
C 182.00 170.33 182.00 134.67 182.00 99.00
C 180.33 133.86 180.33 172.07 182.00 207.00 Z"/>
</g>
<g fill="#90DB59" fill-opacity="1.00" stroke="None">
<path d="
M 182.00 206.00 
C 231.33 206.00 280.67 206.00 330.00 206.00
C 330.00 170.33 330.00 134.67 330.00 99.00
C 280.67 99.00 231.33 99.00 182.00 99.00
C 182.00 134.67 182.00 170.33 182.00 206.00 Z"/>
</g>
<g fill="#465C32" fill-opacity="1.00" stroke="None">
<path d="
M 330.00 206.00 
C 330.00 206.50 330.00 207.00 330.00 207.00
C 331.67 172.14 331.67 133.93 330.00 99.00
C 330.00 134.67 330.00 170.33 330.00 206.00 Z"/>
</g>
<g fill="#57783B" fill-opacity="1.00" stroke="None">
<path d="
M 182.00 207.00 
C 231.33 207.00 280.67 207.00 330.00 207.00
C 330.00 207.00 330.00 206.50 330.00 206.00
C 280.67 206.00 231.33 206.00 182.00 206.00
C 182.00 206.00 181.96 207.00 182.00 207.00 Z"/>
</g>
<g fill="#3C3A3B" fill-opacity="1.00" stroke="None">
<path d="
M 341.00 231.00 
C 277.00 231.00 213.00 231.00 149.00 231.00
C 211.86 232.67 278.07 232.67 341.00 231.00 Z"/>
</g>
<g fill="#524F50" fill-opacity="1.00" stroke="None">
<path d="
M 343.00 247.00 
C 274.67 247.00 206.33 247.00 138.00 247.00
C 205.19 248.67 275.73 248.67 343.00 247.00 Z"/>
</g>
<g fill="#231F20" fill-opacity="1.00" stroke="None">
<path d="
M 139.00 363.00 
C 147.50 363.66 157.33 361.67 165.00 364.00
C 167.13 374.20 159.44 391.94 172.00 396.00
C 184.00 396.00 196.00 396.00 208.00 396.00
C 210.89 395.71 214.65 393.47 214.00 390.00
C 214.66 381.17 212.67 371.01 215.00 363.00
C 223.67 363.00 232.33 363.00 241.00 363.00
C 243.89 362.71 247.65 360.47 247.00 357.00
C 247.00 344.67 247.00 332.33 247.00 320.00
C 241.88 308.46 225.18 316.29 215.00 314.00
C 212.69 305.91 214.65 295.84 214.00 287.00
C 207.14 274.79 188.00 283.74 176.00 281.00 C 158.24 279.85 167.09 303.10 165.00 314.00
C 153.81 315.87 129.80 307.32 132.00 326.00 C 134.62 337.67 125.66 357.58 139.00 363.00
M 198.00 297.00 
C 199.10 307.12 195.57 318.72 200.26 327.74 C 209.10 332.64 220.94 328.76 231.00 330.00
C 231.00 335.67 231.00 341.33 231.00 347.00
C 221.18 348.57 208.87 343.70 200.75 349.75 C 194.92 358.08 199.42 370.14 198.00 380.00
C 192.67 380.00 187.33 380.00 182.00 380.00
C 180.57 370.12 185.10 358.13 179.25 349.75 C 171.18 343.71 158.80 348.56 149.00 347.00
C 149.00 341.33 149.00 335.67 149.00 330.00
C 158.82 328.43 171.13 333.30 179.25 327.25 C 185.08 318.92 180.58 306.86 182.00 297.00
C 187.33 297.00 192.67 297.00 198.00 297.00 Z"/>
</g>
<g fill="#565455" fill-opacity="1.00" stroke="None">
<path d="
M 215.00 314.00 
C 214.35 305.16 216.31 295.09 214.00 287.00
C 214.65 295.84 212.69 305.91 215.00 314.00 Z"/>
</g>
<g fill="#252021" fill-opacity="1.00" stroke="None">
<path d="
M 379.00 327.00 
C 379.00 323.67 379.00 320.33 379.00 317.00
C 376.11 277.83 311.42 282.52 314.00 322.00 C 311.40 361.37 376.19 366.49 379.00 327.00
M 353.00 306.00 
C 372.30 313.03 361.11 346.45 341.31 337.69 C 320.73 330.61 332.17 299.33 353.00 306.00 Z"/>
</g>
<g fill="#403F41" fill-opacity="1.00" stroke="None">
<path d="
M 198.00 297.00 
C 192.67 297.00 187.33 297.00 182.00 297.00
C 180.58 306.86 185.08 318.92 179.25 327.25 C 171.13 333.30 158.82 328.43 149.00 330.00
C 149.00 335.67 149.00 341.33 149.00 347.00
C 158.80 348.56 171.18 343.71 179.25 349.75 C 185.10 358.13 180.57 370.12 182.00 380.00
C 187.33 380.00 192.67 380.00 198.00 380.00
C 199.42 370.14 194.92 358.08 200.75 349.75 C 208.87 343.70 221.18 348.57 231.00 347.00
C 231.00 341.33 231.00 335.67 231.00 330.00
C 220.94 328.76 209.10 332.64 200.26 327.74 C 195.57 318.72 199.10 307.12 198.00 297.00 Z"/>
</g>
<g fill="#D30227" fill-opacity="1.00" stroke="None">
<path d="
M 353.00 306.00 
C 332.17 299.33 320.73 330.61 341.31 337.69 C 361.11 346.45 372.30 313.03 353.00 306.00 Z"/>
</g>
<g fill="#545253" fill-opacity="1.00" stroke="None">
<path d="
M 379.00 327.00 
C 380.72 324.79 380.54 319.28 379.00 317.00
C 379.00 320.33 379.00 323.67 379.00 327.00 Z"/>
</g>
<g fill="#514F50" fill-opacity="1.00" stroke="None">
<path d="
M 247.00 357.00 
C 248.67 345.81 248.66 331.26 247.00 320.00
C 247.00 332.33 247.00 344.67 247.00 357.00 Z"/>
</g>
<g fill="#252021" fill-opacity="1.00" stroke="None">
<path d="
M 293.00 330.00 
C 267.95 326.84 247.61 355.43 259.23 377.77 C 269.35 399.48 301.91 402.62 315.75 382.75 C 331.10 363.42 316.48 332.66 293.00 330.00
M 293.00 347.00 
C 313.01 351.66 306.74 383.62 286.33 379.67 C 264.91 376.98 271.41 341.66 293.00 347.00 Z"/>
</g>
<g fill="#D40127" fill-opacity="1.00" stroke="None">
<path d="
M 293.00 347.00 
C 271.41 341.66 264.91 376.98 286.33 379.67 C 306.74 383.62 313.01 351.66 293.00 347.00 Z"/>
</g>
<g fill="#979798" fill-opacity="1.00" stroke="None">
<path d="
M 165.00 364.00 
C 157.33 361.67 147.50 363.66 139.00 363.00
C 146.67 365.33 156.50 363.34 165.00 364.00 Z"/>
</g>
<g fill="#565355" fill-opacity="1.00" stroke="None">
<path d="
M 214.00 390.00 
C 216.33 382.33 214.34 372.50 215.00 364.00
C 215.00 363.50 215.00 363.00 215.00 363.00
C 212.67 371.01 214.66 381.17 214.00 390.00 Z"/>
</g>
<g fill="#979798" fill-opacity="1.00" stroke="None">
<path d="
M 215.00 364.00 
C 223.51 363.35 233.24 365.31 241.00 363.00
C 232.33 363.00 223.67 363.00 215.00 363.00
C 215.00 363.00 215.00 363.50 215.00 364.00 Z"/>
</g>
<g fill="#8C8C8D" fill-opacity="1.00" stroke="None">
<path d="
M 208.00 396.00 
C 196.00 396.00 184.00 396.00 172.00 396.00
C 182.86 397.67 197.07 397.66 208.00 396.00 Z"/>
</g>
<g fill="#252223" fill-opacity="1.00" stroke="None">
<path d="
M 218.00 413.00 
C 204.17 414.42 193.08 424.52 180.23 429.23 C 171.37 433.94 146.58 442.00 162.33 453.67 C 176.04 453.27 187.40 442.94 199.92 437.92 C 209.35 433.77 232.76 425.04 218.00 413.00 Z"/>
</g>
<g fill="#252122" fill-opacity="1.00" stroke="None">
<path d="
M 275.00 413.00 
C 261.18 414.59 250.04 424.42 237.23 429.23 C 227.88 433.16 204.33 443.49 221.00 454.00 C 234.44 451.67 245.79 442.51 258.31 437.31 C 267.78 433.05 291.24 424.53 275.00 413.00 Z"/>
</g>
<g fill="#231F20" fill-opacity="1.00" stroke="None">
<path d="
M 332.00 426.00 
C 341.33 434.51 350.55 443.71 359.00 453.00
C 366.33 457.54 374.77 448.02 370.00 441.00
C 360.67 432.49 351.45 423.29 343.00 414.00
C 335.59 409.69 327.28 418.82 332.00 426.00 Z"/>
</g>
<g fill="#696869" fill-opacity="1.00" stroke="None">
<path d="
M 370.00 441.00 
C 361.55 431.71 352.33 422.51 343.00 414.00
C 351.45 423.29 360.67 432.49 370.00 441.00 Z"/>
</g>
<g fill="#575555" fill-opacity="1.00" stroke="None">
<path d="
M 359.00 453.00 
C 350.55 443.71 341.33 434.51 332.00 426.00
C 340.45 435.29 349.67 444.49 359.00 453.00 Z"/>
</g>
<g fill="#231F20" fill-opacity="1.00" stroke="None">
<path d="
M 315.00 442.00 
C 324.33 450.51 333.55 459.71 342.00 469.00
C 349.15 473.73 358.33 465.39 354.00 458.00
C 344.67 449.49 335.45 440.29 327.00 431.00
C 320.01 426.25 310.45 434.64 315.00 442.00 Z"/>
</g>
<g fill="#716F70" fill-opacity="1.00" stroke="None">
<path d="
M 354.00 458.00 
C 345.55 448.71 336.33 439.51 327.00 431.00
C 335.45 440.29 344.67 449.49 354.00 458.00 Z"/>
</g>
<g fill="#504E4F" fill-opacity="1.00" stroke="None">
<path d="
M 342.00 469.00 
C 333.55 459.71 324.33 450.51 315.00 442.00
C 323.45 451.29 332.67 460.49 342.00 469.00 Z"/>
</g>
<g fill="#231F20" fill-opacity="1.00" stroke="None">
<path d="
M 298.00 458.00 
C 307.66 466.84 317.22 476.38 326.00 486.00
C 333.33 490.54 341.77 481.02 337.00 474.00
C 327.67 465.49 318.45 456.29 310.00 447.00
C 302.90 443.16 295.48 450.47 298.00 458.00 Z"/>
</g>
<g fill="#747274" fill-opacity="1.00" stroke="None">
<path d="
M 337.00 474.00 
C 328.55 464.71 319.33 455.51 310.00 447.00
C 318.45 456.29 327.67 465.49 337.00 474.00 Z"/>
</g>
<g fill="#504E4F" fill-opacity="1.00" stroke="None">
<path d="
M 326.00 486.00 
C 317.22 476.38 307.66 466.84 298.00 458.00
C 306.78 467.62 316.34 477.16 326.00 486.00 Z"/>
</g>
<g fill="#231E20" fill-opacity="0.41" stroke="None">
<path d="
M 379.00 494.00 
C 382.31 491.56 385.46 488.30 388.00 485.00
C 384.69 487.44 381.54 490.70 379.00 494.00 Z"/>
</g>
<g fill="#747273" fill-opacity="1.00" stroke="None">
<path d="
M 336.00 495.00 
C 267.33 495.00 198.67 495.00 130.00 495.00
C 197.53 496.67 268.40 496.67 336.00 495.00 Z"/>
</g>
</svg>